999
"DXF R12 Output" (www.mydxf.blogspot.com)
 0 
SECTION
 2 
HEADER
 9 
$ACADVER
 1 
AC1009
 9 
$EXTMIN
 10 
 0 
 20 
 0 
 9 
$EXTMAX
 10 
 8.5 
 20 
 11 
 0 
ENDSEC
 0 
SECTION
 2 
ENTITIES
0
LINE
8
Layer 1
10
124.312307
20
0.145910
11
109.346179
21
25.677371
0
LINE
8
Layer 1
10
109.346179
20
25.677371
11
113.345151
21
27.951416
0
LINE
8
Layer 1
10
113.345151
20
27.951416
11
102.955213
21
45.675323
0
LINE
8
Layer 1
10
102.955213
20
45.675323
11
98.956242
21
43.401278
0
LINE
8
Layer 1
10
98.956242
20
43.401278
11
88.566304
21
61.126701
0
LINE
8
Layer 1
10
88.566304
20
61.126701
11
92.565276
21
63.400746
0
LINE
8
Layer 1
10
92.565276
20
63.400746
11
82.175338
21
81.124652
0
LINE
8
Layer 1
10
82.175338
20
81.124652
11
78.176367
21
78.850607
0
LINE
8
Layer 1
10
78.176367
20
78.850607
11
67.786429
21
96.574514
0
LINE
8
Layer 1
10
67.786429
20
96.574514
11
71.785401
21
98.848559
0
LINE
8
Layer 1
10
71.785401
20
98.848559
11
61.395463
21
116.573982
0
LINE
8
Layer 1
10
61.395463
20
116.573982
11
57.396492
21
114.299937
0
LINE
8
Layer 1
10
57.396492
20
114.299937
11
47.006554
21
132.023844
0
LINE
8
Layer 1
10
47.006554
20
132.023844
11
51.005526
21
134.297889
0
LINE
8
Layer 1
10
51.005526
20
134.297889
11
40.615588
21
152.021795
0
LINE
8
Layer 1
10
40.615588
20
152.021795
11
36.616617
21
149.747750
0
LINE
8
Layer 1
10
36.616617
20
149.747750
11
26.226679
21
167.473173
0
LINE
8
Layer 1
10
26.226679
20
167.473173
11
30.225651
21
169.747218
0
LINE
8
Layer 1
10
30.225651
20
169.747218
11
19.835713
21
187.471125
0
LINE
8
Layer 1
10
19.835713
20
187.471125
11
15.836742
21
185.197080
0
LINE
8
Layer 1
10
15.836742
20
185.197080
11
5.446804
21
202.920987
0
LINE
8
Layer 1
10
5.446804
20
202.920987
11
0.870614
21
210.728541
0
LINE
8
Layer 1
10
0.870614
20
210.728541
11
30.802869
21
210.728541
0
LINE
8
Layer 1
10
30.802869
20
210.728541
11
30.802869
21
206.180451
0
LINE
8
Layer 1
10
30.802869
20
206.180451
11
51.582744
21
206.180451
0
LINE
8
Layer 1
10
51.582744
20
206.180451
11
51.582744
21
210.728541
0
LINE
8
Layer 1
10
51.582744
20
210.728541
11
72.362619
21
210.728541
0
LINE
8
Layer 1
10
72.362619
20
210.728541
11
72.362619
21
206.180451
0
LINE
8
Layer 1
10
72.362619
20
206.180451
11
93.142494
21
206.180451
0
LINE
8
Layer 1
10
93.142494
20
206.180451
11
93.142494
21
210.728541
0
LINE
8
Layer 1
10
93.142494
20
210.728541
11
113.922370
21
210.728541
0
LINE
8
Layer 1
10
113.922370
20
210.728541
11
113.922370
21
206.180451
0
LINE
8
Layer 1
10
113.922370
20
206.180451
11
134.702245
21
206.180451
0
LINE
8
Layer 1
10
134.702245
20
206.180451
11
134.702245
21
210.728541
0
LINE
8
Layer 1
10
134.702245
20
210.728541
11
155.482120
21
210.728541
0
LINE
8
Layer 1
10
155.482120
20
210.728541
11
155.482120
21
206.180451
0
LINE
8
Layer 1
10
155.482120
20
206.180451
11
176.261995
21
206.180451
0
LINE
8
Layer 1
10
176.261995
20
206.180451
11
176.261995
21
210.728541
0
LINE
8
Layer 1
10
176.261995
20
210.728541
11
197.041869
21
210.728541
0
LINE
8
Layer 1
10
197.041869
20
210.728541
11
197.041869
21
206.180451
0
LINE
8
Layer 1
10
197.041869
20
206.180451
11
217.821744
21
206.180451
0
LINE
8
Layer 1
10
217.821744
20
206.180451
11
217.821744
21
210.728541
0
LINE
8
Layer 1
10
217.821744
20
210.728541
11
238.601619
21
210.728541
0
LINE
8
Layer 1
10
238.601619
20
210.728541
11
247.754000
21
210.728541
0
LINE
8
Layer 1
10
247.754000
20
210.728541
11
232.787872
21
185.197080
0
LINE
8
Layer 1
10
232.787872
20
185.197080
11
228.788901
21
187.471125
0
LINE
8
Layer 1
10
228.788901
20
187.471125
11
218.398963
21
169.747218
0
LINE
8
Layer 1
10
218.398963
20
169.747218
11
222.397935
21
167.473173
0
LINE
8
Layer 1
10
222.397935
20
167.473173
11
212.007997
21
149.747750
0
LINE
8
Layer 1
10
212.007997
20
149.747750
11
208.009026
21
152.021795
0
LINE
8
Layer 1
10
208.009026
20
152.021795
11
197.619088
21
134.297889
0
LINE
8
Layer 1
10
197.619088
20
134.297889
11
201.618060
21
132.023844
0
LINE
8
Layer 1
10
201.618060
20
132.023844
11
191.228122
21
114.299937
0
LINE
8
Layer 1
10
191.228122
20
114.299937
11
187.229151
21
116.573982
0
LINE
8
Layer 1
10
187.229151
20
116.573982
11
176.839213
21
98.848559
0
LINE
8
Layer 1
10
176.839213
20
98.848559
11
180.838185
21
96.574514
0
LINE
8
Layer 1
10
180.838185
20
96.574514
11
170.448247
21
78.850607
0
LINE
8
Layer 1
10
170.448247
20
78.850607
11
166.449276
21
81.124652
0
LINE
8
Layer 1
10
166.449276
20
81.124652
11
156.059338
21
63.400746
0
LINE
8
Layer 1
10
156.059338
20
63.400746
11
160.058310
21
61.126701
0
LINE
8
Layer 1
10
160.058310
20
61.126701
11
149.668372
21
43.401278
0
LINE
8
Layer 1
10
149.668372
20
43.401278
11
145.669401
21
45.675323
0
LINE
8
Layer 1
10
145.669401
20
45.675323
11
135.279463
21
27.951416
0
LINE
8
Layer 1
10
135.279463
20
27.951416
11
139.278435
21
25.677371
0
LINE
8
Layer 1
10
139.278435
20
25.677371
11
128.888497
21
7.953464
0
LINE
8
Layer 1
10
128.888497
20
7.953464
11
124.312307
21
0.145910
0
LINE
8
Layer 1
10
108.944435
20
146.456449
11
109.195333
21
146.456449
0
LINE
8
Layer 1
10
109.195333
20
146.456449
11
108.979838
21
148.844197
0
LINE
8
Layer 1
10
108.979838
20
148.844197
11
108.944435
21
150.199527
0
LINE
8
Layer 1
10
108.944435
20
150.199527
11
108.944435
21
159.474599
0
LINE
8
Layer 1
10
108.944435
20
159.474599
11
112.410826
21
159.474599
0
LINE
8
Layer 1
10
112.410826
20
159.474599
11
112.410826
21
126.817797
0
LINE
8
Layer 1
10
112.410826
20
126.817797
11
109.592459
21
126.817797
0
LINE
8
Layer 1
10
109.592459
20
126.817797
11
109.112213
21
129.902918
0
LINE
8
Layer 1
10
109.112213
20
129.902918
11
108.944435
21
129.902918
0
LINE
8
Layer 1
10
108.944435
20
129.902918
11
107.596052
21
128.392952
0
LINE
8
Layer 1
10
107.596052
20
128.392952
11
106.758536
21
127.746621
0
LINE
8
Layer 1
10
106.758536
20
127.746621
11
105.833611
21
127.228641
0
LINE
8
Layer 1
10
105.833611
20
127.228641
11
104.617162
21
126.778915
0
LINE
8
Layer 1
10
104.617162
20
126.778915
11
103.346183
21
126.513075
0
LINE
8
Layer 1
10
103.346183
20
126.513075
11
101.762295
21
126.406953
0
LINE
8
Layer 1
10
101.762295
20
126.406953
11
100.247194
21
126.498169
0
LINE
8
Layer 1
10
100.247194
20
126.498169
11
98.760757
21
126.801120
0
LINE
8
Layer 1
10
98.760757
20
126.801120
11
97.602969
21
127.226855
0
LINE
8
Layer 1
10
97.602969
20
127.226855
11
96.533566
21
127.822090
0
LINE
8
Layer 1
10
96.533566
20
127.822090
11
95.571474
21
128.574272
0
LINE
8
Layer 1
10
95.571474
20
128.574272
11
94.735618
21
129.470849
0
LINE
8
Layer 1
10
94.735618
20
129.470849
11
93.684653
21
131.095407
0
LINE
8
Layer 1
10
93.684653
20
131.095407
11
92.960863
21
132.884949
0
LINE
8
Layer 1
10
92.960863
20
132.884949
11
92.577590
21
134.431678
0
LINE
8
Layer 1
10
92.577590
20
134.431678
11
92.345163
21
136.127737
0
LINE
8
Layer 1
10
92.345163
20
136.127737
11
92.262043
21
138.066739
0
LINE
8
Layer 1
10
92.262043
20
138.066739
11
92.531412
21
141.433842
0
LINE
8
Layer 1
10
92.531412
20
141.433842
11
92.932772
21
143.140134
0
LINE
8
Layer 1
10
92.932772
20
143.140134
11
93.514993
21
144.669050
0
LINE
8
Layer 1
10
93.514993
20
144.669050
11
94.778717
21
146.692950
0
LINE
8
Layer 1
10
94.778717
20
146.692950
11
95.971487
21
147.886701
0
LINE
8
Layer 1
10
95.971487
20
147.886701
11
97.372850
21
148.804510
0
LINE
8
Layer 1
10
97.372850
20
148.804510
11
98.934817
21
149.421523
0
LINE
8
Layer 1
10
98.934817
20
149.421523
11
100.609396
21
149.712882
0
LINE
8
Layer 1
10
100.609396
20
149.712882
11
101.762294
21
149.767459
0
LINE
8
Layer 1
10
101.762294
20
149.767459
11
103.899543
21
149.564311
0
LINE
8
Layer 1
10
103.899543
20
149.564311
11
105.844385
21
148.954867
0
LINE
8
Layer 1
10
105.844385
20
148.954867
11
107.562788
21
147.908327
0
LINE
8
Layer 1
10
107.562788
20
147.908327
11
108.944435
21
146.456449
0
LINE
8
Layer 1
10
108.944435
20
146.456449
11
108.944435
21
146.456449
0
LINE
8
Layer 1
10
142.811013
20
146.538315
11
142.811013
21
149.150435
0
LINE
8
Layer 1
10
142.811013
20
149.150435
11
143.215836
21
149.308102
0
LINE
8
Layer 1
10
143.215836
20
149.308102
11
144.264065
21
149.558247
0
LINE
8
Layer 1
10
144.264065
20
149.558247
11
144.471864
21
149.593115
0
LINE
8
Layer 1
10
144.471864
20
149.593115
11
146.326661
21
149.767459
0
LINE
8
Layer 1
10
146.326661
20
149.767459
11
146.445183
21
149.767459
0
LINE
8
Layer 1
10
146.445183
20
149.767459
11
147.792347
21
149.689033
0
LINE
8
Layer 1
10
147.792347
20
149.689033
11
149.112703
21
149.414224
0
LINE
8
Layer 1
10
149.112703
20
149.414224
11
150.443577
21
148.828089
0
LINE
8
Layer 1
10
150.443577
20
148.828089
11
151.503928
21
147.961109
0
LINE
8
Layer 1
10
151.503928
20
147.961109
11
152.293756
21
146.813285
0
LINE
8
Layer 1
10
152.293756
20
146.813285
11
152.813060
21
145.384616
0
LINE
8
Layer 1
10
152.813060
20
145.384616
11
153.023470
21
144.139478
0
LINE
8
Layer 1
10
153.023470
20
144.139478
11
153.083968
21
142.878618
0
LINE
8
Layer 1
10
153.083968
20
142.878618
11
153.083968
21
129.470849
0
LINE
8
Layer 1
10
153.083968
20
129.470849
11
156.362571
21
129.470849
0
LINE
8
Layer 1
10
156.362571
20
129.470849
11
156.362571
21
127.824441
0
LINE
8
Layer 1
10
156.362571
20
127.824441
11
153.083968
21
126.406953
0
LINE
8
Layer 1
10
153.083968
20
126.406953
11
151.623220
21
121.593557
0
LINE
8
Layer 1
10
151.623220
20
121.593557
11
149.619116
21
121.593557
0
LINE
8
Layer 1
10
149.619116
20
121.593557
11
149.619116
21
126.817797
0
LINE
8
Layer 1
10
149.619116
20
126.817797
11
142.978792
21
126.817797
0
LINE
8
Layer 1
10
142.978792
20
126.817797
11
142.978792
21
129.470849
0
LINE
8
Layer 1
10
142.978792
20
129.470849
11
149.619116
21
129.470849
0
LINE
8
Layer 1
10
149.619116
20
129.470849
11
149.619116
21
142.734596
0
LINE
8
Layer 1
10
149.619116
20
142.734596
11
149.517526
21
143.941355
0
LINE
8
Layer 1
10
149.517526
20
143.941355
11
149.190435
21
145.010157
0
LINE
8
Layer 1
10
149.190435
20
145.010157
11
148.637075
21
145.860649
0
LINE
8
Layer 1
10
148.637075
20
145.860649
11
147.741928
21
146.554292
0
LINE
8
Layer 1
10
147.741928
20
146.554292
11
146.657599
21
146.897614
0
LINE
8
Layer 1
10
146.657599
20
146.897614
11
145.943387
21
146.950675
0
LINE
8
Layer 1
10
145.943387
20
146.950675
11
144.276380
21
146.832425
0
LINE
8
Layer 1
10
144.276380
20
146.832425
11
144.168632
21
146.817264
0
LINE
8
Layer 1
10
144.168632
20
146.817264
11
143.668376
21
146.732367
0
LINE
8
Layer 1
10
143.668376
20
146.732367
11
142.811014
21
146.538315
0
LINE
8
Layer 1
10
142.811014
20
146.538315
11
142.811013
21
146.538315
0
LINE
8
Layer 1
10
121.306152
20
146.673242
11
120.154793
21
145.114763
0
LINE
8
Layer 1
10
120.154793
20
145.114763
11
119.424803
21
143.620810
0
LINE
8
Layer 1
10
119.424803
20
143.620810
11
118.903382
21
141.948155
0
LINE
8
Layer 1
10
118.903382
20
141.948155
11
118.590530
21
140.096798
0
LINE
8
Layer 1
10
118.590530
20
140.096798
11
118.486246
21
138.066739
0
LINE
8
Layer 1
10
118.486246
20
138.066739
11
118.493942
21
137.524001
0
LINE
8
Layer 1
10
118.493942
20
137.524001
11
118.721655
21
135.155962
0
LINE
8
Layer 1
10
118.721655
20
135.155962
11
119.267800
21
133.038068
0
LINE
8
Layer 1
10
119.267800
20
133.038068
11
120.132377
21
131.170319
0
LINE
8
Layer 1
10
120.132377
20
131.170319
11
121.315387
21
129.552715
0
LINE
8
Layer 1
10
121.315387
20
129.552715
11
122.217281
21
128.669571
0
LINE
8
Layer 1
10
122.217281
20
128.669571
11
123.230515
21
127.922588
0
LINE
8
Layer 1
10
123.230515
20
127.922588
11
124.339417
21
127.321721
0
LINE
8
Layer 1
10
124.339417
20
127.321721
11
125.528314
21
126.876922
0
LINE
8
Layer 1
10
125.528314
20
126.876922
11
127.219875
21
126.516495
0
LINE
8
Layer 1
10
127.219875
20
126.516495
11
128.946989
21
126.406953
0
LINE
8
Layer 1
10
128.946989
20
126.406953
11
131.296269
21
126.599015
0
LINE
8
Layer 1
10
131.296269
20
126.599015
11
133.373872
21
127.175201
0
LINE
8
Layer 1
10
133.373872
20
127.175201
11
135.179797
21
128.135511
0
LINE
8
Layer 1
10
135.179797
20
128.135511
11
136.714044
21
129.479945
0
LINE
8
Layer 1
10
136.714044
20
129.479945
11
137.891570
21
131.086937
0
LINE
8
Layer 1
10
137.891570
20
131.086937
11
138.670431
21
132.752675
0
LINE
8
Layer 1
10
138.670431
20
132.752675
11
139.196854
21
134.638995
0
LINE
8
Layer 1
10
139.196854
20
134.638995
11
139.439299
21
136.345306
0
LINE
8
Layer 1
10
139.439299
20
136.345306
11
139.512401
21
138.066739
0
LINE
8
Layer 1
10
139.512401
20
138.066739
11
139.295366
21
140.831978
0
LINE
8
Layer 1
10
139.295366
20
140.831978
11
138.882033
21
142.592242
0
LINE
8
Layer 1
10
138.882033
20
142.592242
11
138.217891
21
144.276398
0
LINE
8
Layer 1
10
138.217891
20
144.276398
11
137.502814
21
145.525796
0
LINE
8
Layer 1
10
137.502814
20
145.525796
11
136.652089
21
146.620939
0
LINE
8
Layer 1
10
136.652089
20
146.620939
11
135.665719
21
147.561825
0
LINE
8
Layer 1
10
135.665719
20
147.561825
11
134.543702
21
148.348455
0
LINE
8
Layer 1
10
134.543702
20
148.348455
11
133.310089
21
148.969269
0
LINE
8
Layer 1
10
133.310089
20
148.969269
11
131.990471
21
149.412708
0
LINE
8
Layer 1
10
131.990471
20
149.412708
11
130.584847
21
149.678771
0
LINE
8
Layer 1
10
130.584847
20
149.678771
11
129.093217
21
149.767459
0
LINE
8
Layer 1
10
129.093217
20
149.767459
11
126.742783
21
149.574923
0
LINE
8
Layer 1
10
126.742783
20
149.574923
11
125.208430
21
149.203485
0
LINE
8
Layer 1
10
125.208430
20
149.203485
11
123.770707
21
148.585295
0
LINE
8
Layer 1
10
123.770707
20
148.585295
11
122.459864
21
147.736499
0
LINE
8
Layer 1
10
122.459864
20
147.736499
11
121.306152
21
146.673242
0
LINE
8
Layer 1
10
121.306152
20
146.673242
11
121.306152
21
146.673242
0
LINE
8
Layer 1
10
135.921330
20
138.066739
11
135.753552
21
140.536352
0
LINE
8
Layer 1
10
135.753552
20
140.536352
11
135.170176
21
142.837686
0
LINE
8
Layer 1
10
135.170176
20
142.837686
11
134.721485
21
143.804155
0
LINE
8
Layer 1
10
134.721485
20
143.804155
11
134.168125
21
144.647825
0
LINE
8
Layer 1
10
134.168125
20
144.647825
11
133.416653
21
145.444546
0
LINE
8
Layer 1
10
133.416653
20
145.444546
11
132.531628
21
146.077973
0
LINE
8
Layer 1
10
132.531628
20
146.077973
11
131.539762
21
146.532623
0
LINE
8
Layer 1
10
131.539762
20
146.532623
11
130.467768
21
146.793008
0
LINE
8
Layer 1
10
130.467768
20
146.793008
11
129.010098
21
146.909742
0
LINE
8
Layer 1
10
129.010098
20
146.909742
11
126.885933
21
146.648985
0
LINE
8
Layer 1
10
126.885933
20
146.648985
11
126.006041
21
146.344612
0
LINE
8
Layer 1
10
126.006041
20
146.344612
11
125.194873
21
145.904147
0
LINE
8
Layer 1
10
125.194873
20
145.904147
11
124.468461
21
145.338086
0
LINE
8
Layer 1
10
124.468461
20
145.338086
11
123.842836
21
144.656922
0
LINE
8
Layer 1
10
123.842836
20
144.656922
11
123.166432
21
143.594680
0
LINE
8
Layer 1
10
123.166432
20
143.594680
11
122.683780
21
142.434422
0
LINE
8
Layer 1
10
122.683780
20
142.434422
11
122.194299
21
140.154313
0
LINE
8
Layer 1
10
122.194299
20
140.154313
11
122.078855
21
138.066739
0
LINE
8
Layer 1
10
122.078855
20
138.066739
11
122.189104
21
136.046914
0
LINE
8
Layer 1
10
122.189104
20
136.046914
11
122.519850
21
134.285381
0
LINE
8
Layer 1
10
122.519850
20
134.285381
11
123.071094
21
132.782143
0
LINE
8
Layer 1
10
123.071094
20
132.782143
11
123.842836
21
131.537198
0
LINE
8
Layer 1
10
123.842836
20
131.537198
11
124.568801
21
130.777995
0
LINE
8
Layer 1
10
124.568801
20
130.777995
11
125.417160
21
130.168616
0
LINE
8
Layer 1
10
125.417160
20
130.168616
11
126.364579
21
129.722772
0
LINE
8
Layer 1
10
126.364579
20
129.722772
11
127.387728
21
129.454173
0
LINE
8
Layer 1
10
127.387728
20
129.454173
11
129.051658
21
129.305602
0
LINE
8
Layer 1
10
129.051658
20
129.305602
11
131.105017
21
129.542103
0
LINE
8
Layer 1
10
131.105017
20
129.542103
11
131.995393
21
129.832952
0
LINE
8
Layer 1
10
131.995393
20
129.832952
11
132.817333
21
130.264563
0
LINE
8
Layer 1
10
132.817333
20
130.264563
11
133.553894
21
130.826137
0
LINE
8
Layer 1
10
133.553894
20
130.826137
11
134.188135
21
131.506877
0
LINE
8
Layer 1
10
134.188135
20
131.506877
11
134.756118
21
132.368267
0
LINE
8
Layer 1
10
134.756118
20
132.368267
11
135.211736
21
133.369699
0
LINE
8
Layer 1
10
135.211736
20
133.369699
11
135.785876
21
135.792694
0
LINE
8
Layer 1
10
135.785876
20
135.792694
11
135.921330
21
138.066739
0
LINE
8
Layer 1
10
135.921330
20
138.066739
11
135.921330
21
138.066739
0
LINE
8
Layer 1
10
108.944435
20
137.305692
11
108.944435
21
138.066739
0
LINE
8
Layer 1
10
108.944435
20
138.066739
11
108.871994
21
139.961966
0
LINE
8
Layer 1
10
108.871994
20
139.961966
11
108.654671
21
141.613491
0
LINE
8
Layer 1
10
108.654671
20
141.613491
11
108.292466
21
143.021315
0
LINE
8
Layer 1
10
108.292466
20
143.021315
11
107.785380
21
144.185436
0
LINE
8
Layer 1
10
107.785380
20
144.185436
11
107.337458
21
144.863102
0
LINE
8
Layer 1
10
107.337458
20
144.863102
11
106.518866
21
145.677494
0
LINE
8
Layer 1
10
106.518866
20
145.677494
11
105.505366
21
146.286275
0
LINE
8
Layer 1
10
105.505366
20
146.286275
11
104.296958
21
146.689444
0
LINE
8
Layer 1
10
104.296958
20
146.689444
11
102.893643
21
146.887002
0
LINE
8
Layer 1
10
102.893643
20
146.887002
11
102.179431
21
146.909742
0
LINE
8
Layer 1
10
102.179431
20
146.909742
11
100.777367
21
146.761929
0
LINE
8
Layer 1
10
100.777367
20
146.761929
11
99.535769
21
146.318491
0
LINE
8
Layer 1
10
99.535769
20
146.318491
11
98.454639
21
145.579426
0
LINE
8
Layer 1
10
98.454639
20
145.579426
11
97.533975
21
144.544735
0
LINE
8
Layer 1
10
97.533975
20
144.544735
11
96.936072
21
143.541976
0
LINE
8
Layer 1
10
96.936072
20
143.541976
11
96.469199
21
142.399932
0
LINE
8
Layer 1
10
96.469199
20
142.399932
11
96.133353
21
141.118602
0
LINE
8
Layer 1
10
96.133353
20
141.118602
11
95.928537
21
139.697988
0
LINE
8
Layer 1
10
95.928537
20
139.697988
11
95.853114
21
138.025806
0
LINE
8
Layer 1
10
95.853114
20
138.025806
11
96.033976
21
135.470538
0
LINE
8
Layer 1
10
96.033976
20
135.470538
11
96.576561
21
133.338242
0
LINE
8
Layer 1
10
96.576561
20
133.338242
11
97.533975
21
131.556906
0
LINE
8
Layer 1
10
97.533975
20
131.556906
11
98.316033
21
130.692637
0
LINE
8
Layer 1
10
98.316033
20
130.692637
11
99.257981
21
130.022437
0
LINE
8
Layer 1
10
99.257981
20
130.022437
11
100.323815
21
129.566500
0
LINE
8
Layer 1
10
100.323815
20
129.566500
11
101.477533
21
129.345019
0
LINE
8
Layer 1
10
101.477533
20
129.345019
11
102.264090
21
129.305602
0
LINE
8
Layer 1
10
102.264090
20
129.305602
11
104.129661
21
129.466301
0
LINE
8
Layer 1
10
104.129661
20
129.466301
11
105.108239
21
129.720236
0
LINE
8
Layer 1
10
105.108239
20
129.720236
11
105.965986
21
130.093937
0
LINE
8
Layer 1
10
105.965986
20
130.093937
11
106.707884
21
130.589962
0
LINE
8
Layer 1
10
106.707884
20
130.589962
11
107.337458
21
131.218832
0
LINE
8
Layer 1
10
107.337458
20
131.218832
11
107.870708
21
132.014513
0
LINE
8
Layer 1
10
107.870708
20
132.014513
11
108.265626
21
132.884949
0
LINE
8
Layer 1
10
108.265626
20
132.884949
11
108.726631
21
134.645439
0
LINE
8
Layer 1
10
108.726631
20
134.645439
11
108.933660
21
136.782662
0
LINE
8
Layer 1
10
108.933660
20
136.782662
11
108.944435
21
137.305692
0
LINE
8
Layer 1
10
108.944435
20
137.305692
11
108.944435
21
137.305692
0
LINE
8
Layer 1
10
78.726563
20
173.633418
11
166.605795
21
173.633418
0
LINE
8
Layer 1
10
166.605795
20
173.633418
11
167.360560
21
173.369632
0
LINE
8
Layer 1
10
167.360560
20
173.369632
11
167.591943
21
173.077450
0
LINE
8
Layer 1
10
167.591943
20
173.077450
11
167.673194
21
172.732798
0
LINE
8
Layer 1
10
167.673194
20
172.732798
11
167.673194
21
117.348651
0
LINE
8
Layer 1
10
167.673194
20
117.348651
11
167.591943
21
117.003999
0
LINE
8
Layer 1
10
167.591943
20
117.003999
11
167.360560
21
116.711817
0
LINE
8
Layer 1
10
167.360560
20
116.711817
11
166.605795
21
116.448031
0
LINE
8
Layer 1
10
166.605795
20
116.448031
11
78.726563
21
116.448031
0
LINE
8
Layer 1
10
78.726563
20
116.448031
11
77.971798
21
116.711817
0
LINE
8
Layer 1
10
77.971798
20
116.711817
11
77.740415
21
117.003999
0
LINE
8
Layer 1
10
77.740415
20
117.003999
11
77.659164
21
117.348651
0
LINE
8
Layer 1
10
77.659164
20
117.348651
11
77.659164
21
172.732798
0
LINE
8
Layer 1
10
77.659164
20
172.732798
11
77.740415
21
173.077450
0
LINE
8
Layer 1
10
77.740415
20
173.077450
11
77.971798
21
173.369632
0
LINE
8
Layer 1
10
77.971798
20
173.369632
11
78.726563
21
173.633418
0
LINE
8
Layer 1
10
78.726563
20
173.633418
11
78.726563
21
173.633418
0
LINE
8
Layer 1
10
-65.833795
20
53.967700
11
-65.833795
21
53.967700
0
LINE
8
Layer 1
10
-65.833795
20
53.967700
11
-65.459386
21
53.760920
0
LINE
8
Layer 1
10
-65.459386
20
53.760920
11
-65.304300
21
53.261708
0
LINE
8
Layer 1
10
-65.304300
20
53.261708
11
-65.304300
21
53.261708
0
LINE
8
Layer 1
10
-65.304300
20
53.261708
11
-65.459386
21
52.762496
0
LINE
8
Layer 1
10
-65.459386
20
52.762496
11
-65.833795
21
52.555715
0
LINE
8
Layer 1
10
-65.833795
20
52.555715
11
-65.833795
21
52.555715
0
LINE
8
Layer 1
10
-65.833795
20
52.555715
11
-66.208204
21
52.762496
0
LINE
8
Layer 1
10
-66.208204
20
52.762496
11
-66.363289
21
53.261708
0
LINE
8
Layer 1
10
-66.363289
20
53.261708
11
-66.363289
21
53.261708
0
LINE
8
Layer 1
10
-66.363289
20
53.261708
11
-66.208204
21
53.760920
0
LINE
8
Layer 1
10
-66.208204
20
53.760920
11
-65.833795
21
53.967700
0
LINE
8
Layer 1
10
-65.833795
20
53.967700
11
-65.833795
21
53.967700
 0 
ENDSEC
 0 
EOF