999
"DXF R12 Output" (www.mydxf.blogspot.com)
 0 
SECTION
 2 
HEADER
 9 
$ACADVER
 1 
AC1009
 9 
$EXTMIN
 10 
 0 
 20 
 0 
 9 
$EXTMAX
 10 
 8.5 
 20 
 11 
 0 
ENDSEC
 0 
SECTION
 2 
ENTITIES
0
LINE
8
Layer 1
10
10.158943
20
310.007564
11
10.235143
21
331.735645
0
LINE
8
Layer 1
10
10.235143
20
331.735645
11
29.523583
21
331.735645
0
LINE
8
Layer 1
10
29.523583
20
331.735645
11
29.447383
21
335.852543
0
LINE
8
Layer 1
10
29.447383
20
335.852543
11
50.184367
21
335.852543
0
LINE
8
Layer 1
10
50.184367
20
335.852543
11
50.108167
21
331.888122
0
LINE
8
Layer 1
10
50.108167
20
331.888122
11
70.997607
21
331.811882
0
LINE
8
Layer 1
10
70.997607
20
331.811882
11
70.845127
21
335.852541
0
LINE
8
Layer 1
10
70.845127
20
335.852541
11
91.647777
21
335.886551
0
LINE
8
Layer 1
10
91.647777
20
335.886551
11
91.654777
21
331.782729
0
LINE
8
Layer 1
10
91.654777
20
331.782729
11
112.366990
21
331.773729
0
LINE
8
Layer 1
10
112.366990
20
331.773729
11
112.371990
21
335.890630
0
LINE
8
Layer 1
10
112.371990
20
335.890630
11
133.123260
21
335.881130
0
LINE
8
Layer 1
10
133.123260
20
335.881130
11
133.094660
21
331.764229
0
LINE
8
Layer 1
10
133.094660
20
331.764229
11
153.822110
21
331.773729
0
LINE
8
Layer 1
10
153.822110
20
331.773729
11
153.832110
21
335.909688
0
LINE
8
Layer 1
10
153.832110
20
335.909688
11
174.530970
21
335.909688
0
LINE
8
Layer 1
10
174.530970
20
335.909688
11
174.530970
21
331.735611
0
LINE
8
Layer 1
10
174.530970
20
331.735611
11
195.268630
21
331.769221
0
LINE
8
Layer 1
10
195.268630
20
331.769221
11
195.275630
21
335.893260
0
LINE
8
Layer 1
10
195.275630
20
335.893260
11
216.003650
21
335.893260
0
LINE
8
Layer 1
10
216.003650
20
335.893260
11
216.000650
21
331.775960
0
LINE
8
Layer 1
10
216.000650
20
331.775960
11
243.195740
21
331.771160
0
LINE
8
Layer 1
10
243.195740
20
331.771160
11
243.190740
21
310.167945
0
LINE
8
Layer 1
10
243.190740
20
310.167945
11
235.239460
21
310.167945
0
LINE
8
Layer 1
10
235.239460
20
310.167945
11
235.286260
21
291.692938
0
LINE
8
Layer 1
10
235.286260
20
291.692938
11
243.237530
21
291.599398
0
LINE
8
Layer 1
10
243.237530
20
291.599398
11
243.190730
21
273.124385
0
LINE
8
Layer 1
10
243.190730
20
273.124385
11
235.145910
21
273.124385
0
LINE
8
Layer 1
10
235.145910
20
273.124385
11
235.239510
21
254.555835
0
LINE
8
Layer 1
10
235.239510
20
254.555835
11
243.190780
21
254.555835
0
LINE
8
Layer 1
10
243.190780
20
254.555835
11
243.190780
21
236.080840
0
LINE
8
Layer 1
10
243.190780
20
236.080840
11
235.192730
21
236.080840
0
LINE
8
Layer 1
10
235.192730
20
236.080840
11
235.239530
21
217.605820
0
LINE
8
Layer 1
10
235.239530
20
217.605820
11
243.190800
21
217.559020
0
LINE
8
Layer 1
10
243.190800
20
217.559020
11
243.190800
21
198.943700
0
LINE
8
Layer 1
10
243.190800
20
198.943700
11
235.239530
21
198.943700
0
LINE
8
Layer 1
10
235.239530
20
198.943700
11
235.286330
21
180.421920
0
LINE
8
Layer 1
10
235.286330
20
180.421920
11
243.144050
21
180.468720
0
LINE
8
Layer 1
10
243.144050
20
180.468720
11
243.144050
21
161.993710
0
LINE
8
Layer 1
10
243.144050
20
161.993710
11
235.146010
21
161.900210
0
LINE
8
Layer 1
10
235.146010
20
161.900210
11
235.192810
21
143.425200
0
LINE
8
Layer 1
10
235.192810
20
143.425200
11
243.190860
21
143.425200
0
LINE
8
Layer 1
10
243.190860
20
143.425200
11
243.190860
21
124.950190
0
LINE
8
Layer 1
10
243.190860
20
124.950190
11
235.146040
21
124.856690
0
LINE
8
Layer 1
10
235.146040
20
124.856690
11
235.239640
21
106.334910
0
LINE
8
Layer 1
10
235.239640
20
106.334910
11
243.190910
21
106.428410
0
LINE
8
Layer 1
10
243.190910
20
106.428410
11
243.144110
21
87.766310
0
LINE
8
Layer 1
10
243.144110
20
87.766310
11
235.052530
21
87.859810
0
LINE
8
Layer 1
10
235.052530
20
87.859810
11
235.192840
21
69.338030
0
LINE
8
Layer 1
10
235.192840
20
69.338030
11
243.097340
21
69.384830
0
LINE
8
Layer 1
10
243.097340
20
69.384830
11
243.144140
21
50.769510
0
LINE
8
Layer 1
10
243.144140
20
50.769510
11
235.192870
21
50.769510
0
LINE
8
Layer 1
10
235.192870
20
50.769510
11
235.286370
21
32.154190
0
LINE
8
Layer 1
10
235.286370
20
32.154190
11
243.050550
21
32.200890
0
LINE
8
Layer 1
10
243.050550
20
32.200890
11
243.237640
21
10.638940
0
LINE
8
Layer 1
10
243.237640
20
10.638940
11
215.992850
21
10.662240
0
LINE
8
Layer 1
10
215.992850
20
10.662240
11
215.992850
21
6.546280
0
LINE
8
Layer 1
10
215.992850
20
6.546280
11
195.272780
21
6.522980
0
LINE
8
Layer 1
10
195.272780
20
6.522980
11
195.249380
21
10.638950
0
LINE
8
Layer 1
10
195.249380
20
10.638950
11
174.548310
21
10.644950
0
LINE
8
Layer 1
10
174.548310
20
10.644950
11
174.548310
21
6.527530
0
LINE
8
Layer 1
10
174.548310
20
6.527530
11
153.820010
21
6.527530
0
LINE
8
Layer 1
10
153.820010
20
6.527530
11
153.822010
21
10.645110
0
LINE
8
Layer 1
10
153.822010
20
10.645110
11
133.053380
21
10.617610
0
LINE
8
Layer 1
10
133.053380
20
10.617610
11
133.086480
21
6.533110
0
LINE
8
Layer 1
10
133.086480
20
6.533110
11
112.321390
21
6.523010
0
LINE
8
Layer 1
10
112.321390
20
6.523010
11
112.321390
21
10.685730
0
LINE
8
Layer 1
10
112.321390
20
10.685730
11
91.601317
21
10.638930
0
LINE
8
Layer 1
10
91.601317
20
10.638930
11
91.648117
21
6.522980
0
LINE
8
Layer 1
10
91.648117
20
6.522980
11
70.880877
21
6.522980
0
LINE
8
Layer 1
10
70.880877
20
6.522980
11
70.880877
21
10.685700
0
LINE
8
Layer 1
10
70.880877
20
10.685700
11
50.184197
21
10.638900
0
LINE
8
Layer 1
10
50.184197
20
10.638900
11
50.195897
21
6.534640
0
LINE
8
Layer 1
10
50.195897
20
6.534640
11
29.466613
21
6.528640
0
LINE
8
Layer 1
10
29.466613
20
6.528640
11
29.466613
21
10.646220
0
LINE
8
Layer 1
10
29.466613
20
10.646220
11
10.247113
21
10.644220
0
LINE
8
Layer 1
10
10.247113
20
10.644220
11
10.245113
21
32.263580
0
LINE
8
Layer 1
10
10.245113
20
32.263580
11
2.269113
21
32.260580
0
LINE
8
Layer 1
10
2.269113
20
32.260580
11
2.270113
21
50.785420
0
LINE
8
Layer 1
10
2.270113
20
50.785420
11
10.246883
21
50.786420
0
LINE
8
Layer 1
10
10.246883
20
50.786420
11
10.246883
21
69.313450
0
LINE
8
Layer 1
10
10.246883
20
69.313450
11
2.269073
21
69.311450
0
LINE
8
Layer 1
10
2.269073
20
69.311450
11
2.269073
21
87.839520
0
LINE
8
Layer 1
10
2.269073
20
87.839520
11
10.246883
21
87.839520
0
LINE
8
Layer 1
10
10.246883
20
87.839520
11
10.252883
21
106.363460
0
LINE
8
Layer 1
10
10.252883
20
106.363460
11
2.268873
21
106.365460
0
LINE
8
Layer 1
10
2.268873
20
106.365460
11
2.268873
21
124.893530
0
LINE
8
Layer 1
10
2.268873
20
124.893530
11
10.247713
21
124.891530
0
LINE
8
Layer 1
10
10.247713
20
124.891530
11
10.248713
21
143.421980
0
LINE
8
Layer 1
10
10.248713
20
143.421980
11
2.270543
21
143.418980
0
LINE
8
Layer 1
10
2.270543
20
143.418980
11
2.268543
21
161.947050
0
LINE
8
Layer 1
10
2.268543
20
161.947050
11
10.245863
21
161.947090
0
LINE
8
Layer 1
10
10.245863
20
161.947090
11
10.247863
21
180.472010
0
LINE
8
Layer 1
10
10.247863
20
180.472010
11
2.267983
21
180.468010
0
LINE
8
Layer 1
10
2.267983
20
180.468010
11
2.268983
21
198.999180
0
LINE
8
Layer 1
10
2.268983
20
198.999180
11
10.252993
21
199.001180
0
LINE
8
Layer 1
10
10.252993
20
199.001180
11
10.246993
21
217.524080
0
LINE
8
Layer 1
10
10.246993
20
217.524080
11
2.267463
21
217.524180
0
LINE
8
Layer 1
10
2.267463
20
217.524180
11
2.270463
21
236.051820
0
LINE
8
Layer 1
10
2.270463
20
236.051820
11
10.248043
21
236.051820
0
LINE
8
Layer 1
10
10.248043
20
236.051820
11
10.247073
21
254.579185
0
LINE
8
Layer 1
10
10.247073
20
254.579185
11
2.268233
21
254.580185
0
LINE
8
Layer 1
10
2.268233
20
254.580185
11
2.268233
21
273.117555
0
LINE
8
Layer 1
10
2.268233
20
273.117555
11
10.240733
21
273.117555
0
LINE
8
Layer 1
10
10.240733
20
273.117555
11
10.247733
21
291.632193
0
LINE
8
Layer 1
10
10.247733
20
291.632193
11
2.269923
21
291.631193
0
LINE
8
Layer 1
10
2.269923
20
291.631193
11
2.269923
21
310.158023
0
LINE
8
Layer 1
10
2.269923
20
310.158023
11
10.158943
21
310.007564
 0 
ENDSEC
 0 
EOF