999
"DXF R12 Output" (www.mydxf.blogspot.com)
 0 
SECTION
 2 
HEADER
 9 
$ACADVER
 1 
AC1009
 9 
$EXTMIN
 10 
 0 
 20 
 0 
 9 
$EXTMAX
 10 
 8.5 
 20 
 11 
 0 
ENDSEC
 0 
SECTION
 2 
ENTITIES
0
LINE
8
Layer 1
10
110.461770
20
182.388880
11
110.461770
21
179.339330
0
LINE
8
Layer 1
10
77.179275
20
92.891710
11
77.286926
21
92.172803
0
LINE
8
Layer 1
10
77.286926
20
92.172803
11
77.592469
21
91.529593
0
LINE
8
Layer 1
10
77.592469
20
91.529593
11
78.069790
21
91.001163
0
LINE
8
Layer 1
10
78.069790
20
91.001163
11
78.692778
21
90.626593
0
LINE
8
Layer 1
10
78.692778
20
90.626593
11
79.398157
21
90.450935
0
LINE
8
Layer 1
10
79.398157
20
90.450935
11
80.109332
21
90.487075
0
LINE
8
Layer 1
10
80.109332
20
90.487075
11
80.780201
21
90.725841
0
LINE
8
Layer 1
10
80.780201
20
90.725841
11
81.364666
21
91.158064
0
LINE
8
Layer 1
10
81.364666
20
91.158064
11
81.796889
21
91.742529
0
LINE
8
Layer 1
10
81.796889
20
91.742529
11
82.035655
21
92.413398
0
LINE
8
Layer 1
10
82.035655
20
92.413398
11
82.071795
21
93.124573
0
LINE
8
Layer 1
10
82.071795
20
93.124573
11
81.896137
21
93.829952
0
LINE
8
Layer 1
10
81.896137
20
93.829952
11
81.521567
21
94.452940
0
LINE
8
Layer 1
10
81.521567
20
94.452940
11
80.993137
21
94.930261
0
LINE
8
Layer 1
10
80.993137
20
94.930261
11
80.349927
21
95.235804
0
LINE
8
Layer 1
10
80.349927
20
95.235804
11
79.631020
21
95.343455
0
LINE
8
Layer 1
10
79.631020
20
95.343455
11
78.692778
21
95.156827
0
LINE
8
Layer 1
10
78.692778
20
95.156827
11
77.897374
21
94.625356
0
LINE
8
Layer 1
10
77.897374
20
94.625356
11
77.365903
21
93.829952
0
LINE
8
Layer 1
10
77.365903
20
93.829952
11
77.179275
21
92.891710
0
LINE
8
Layer 1
10
77.179275
20
92.891710
11
77.179275
21
92.891710
0
LINE
8
Layer 1
10
77.183768
20
121.538440
11
77.291419
21
120.819533
0
LINE
8
Layer 1
10
77.291419
20
120.819533
11
77.596962
21
120.176323
0
LINE
8
Layer 1
10
77.596962
20
120.176323
11
78.074283
21
119.647893
0
LINE
8
Layer 1
10
78.074283
20
119.647893
11
78.697271
21
119.273323
0
LINE
8
Layer 1
10
78.697271
20
119.273323
11
79.402650
21
119.097665
0
LINE
8
Layer 1
10
79.402650
20
119.097665
11
80.113825
21
119.133805
0
LINE
8
Layer 1
10
80.113825
20
119.133805
11
80.784694
21
119.372571
0
LINE
8
Layer 1
10
80.784694
20
119.372571
11
81.369159
21
119.804794
0
LINE
8
Layer 1
10
81.369159
20
119.804794
11
81.801382
21
120.389259
0
LINE
8
Layer 1
10
81.801382
20
120.389259
11
82.040148
21
121.060128
0
LINE
8
Layer 1
10
82.040148
20
121.060128
11
82.076288
21
121.771303
0
LINE
8
Layer 1
10
82.076288
20
121.771303
11
81.900630
21
122.476682
0
LINE
8
Layer 1
10
81.900630
20
122.476682
11
81.526060
21
123.099670
0
LINE
8
Layer 1
10
81.526060
20
123.099670
11
80.997630
21
123.576991
0
LINE
8
Layer 1
10
80.997630
20
123.576991
11
80.354420
21
123.882534
0
LINE
8
Layer 1
10
80.354420
20
123.882534
11
79.635513
21
123.990185
0
LINE
8
Layer 1
10
79.635513
20
123.990185
11
78.697271
21
123.803557
0
LINE
8
Layer 1
10
78.697271
20
123.803557
11
77.901867
21
123.272086
0
LINE
8
Layer 1
10
77.901867
20
123.272086
11
77.370396
21
122.476682
0
LINE
8
Layer 1
10
77.370396
20
122.476682
11
77.183768
21
121.538440
0
LINE
8
Layer 1
10
77.183768
20
121.538440
11
77.183768
21
121.538440
0
LINE
8
Layer 1
10
76.919189
20
150.113420
11
77.026840
21
149.394513
0
LINE
8
Layer 1
10
77.026840
20
149.394513
11
77.332383
21
148.751303
0
LINE
8
Layer 1
10
77.332383
20
148.751303
11
77.809704
21
148.222873
0
LINE
8
Layer 1
10
77.809704
20
148.222873
11
78.432692
21
147.848303
0
LINE
8
Layer 1
10
78.432692
20
147.848303
11
79.138071
21
147.672645
0
LINE
8
Layer 1
10
79.138071
20
147.672645
11
79.849246
21
147.708785
0
LINE
8
Layer 1
10
79.849246
20
147.708785
11
80.520115
21
147.947551
0
LINE
8
Layer 1
10
80.520115
20
147.947551
11
81.104580
21
148.379774
0
LINE
8
Layer 1
10
81.104580
20
148.379774
11
81.536803
21
148.964239
0
LINE
8
Layer 1
10
81.536803
20
148.964239
11
81.775569
21
149.635108
0
LINE
8
Layer 1
10
81.775569
20
149.635108
11
81.811709
21
150.346283
0
LINE
8
Layer 1
10
81.811709
20
150.346283
11
81.636051
21
151.051662
0
LINE
8
Layer 1
10
81.636051
20
151.051662
11
81.261481
21
151.674650
0
LINE
8
Layer 1
10
81.261481
20
151.674650
11
80.733051
21
152.151971
0
LINE
8
Layer 1
10
80.733051
20
152.151971
11
80.089841
21
152.457514
0
LINE
8
Layer 1
10
80.089841
20
152.457514
11
79.370934
21
152.565165
0
LINE
8
Layer 1
10
79.370934
20
152.565165
11
78.432692
21
152.378537
0
LINE
8
Layer 1
10
78.432692
20
152.378537
11
77.637288
21
151.847066
0
LINE
8
Layer 1
10
77.637288
20
151.847066
11
77.105817
21
151.051662
0
LINE
8
Layer 1
10
77.105817
20
151.051662
11
76.919189
21
150.113420
0
LINE
8
Layer 1
10
76.919189
20
150.113420
11
76.919189
21
150.113420
0
LINE
8
Layer 1
10
76.919189
20
176.307180
11
77.026840
21
175.588273
0
LINE
8
Layer 1
10
77.026840
20
175.588273
11
77.332383
21
174.945063
0
LINE
8
Layer 1
10
77.332383
20
174.945063
11
77.809704
21
174.416633
0
LINE
8
Layer 1
10
77.809704
20
174.416633
11
78.432692
21
174.042063
0
LINE
8
Layer 1
10
78.432692
20
174.042063
11
79.138071
21
173.866405
0
LINE
8
Layer 1
10
79.138071
20
173.866405
11
79.849246
21
173.902545
0
LINE
8
Layer 1
10
79.849246
20
173.902545
11
80.520115
21
174.141311
0
LINE
8
Layer 1
10
80.520115
20
174.141311
11
81.104580
21
174.573534
0
LINE
8
Layer 1
10
81.104580
20
174.573534
11
81.536803
21
175.157999
0
LINE
8
Layer 1
10
81.536803
20
175.157999
11
81.775569
21
175.828868
0
LINE
8
Layer 1
10
81.775569
20
175.828868
11
81.811709
21
176.540043
0
LINE
8
Layer 1
10
81.811709
20
176.540043
11
81.636051
21
177.245422
0
LINE
8
Layer 1
10
81.636051
20
177.245422
11
81.261481
21
177.868410
0
LINE
8
Layer 1
10
81.261481
20
177.868410
11
80.733051
21
178.345731
0
LINE
8
Layer 1
10
80.733051
20
178.345731
11
80.089841
21
178.651274
0
LINE
8
Layer 1
10
80.089841
20
178.651274
11
79.370934
21
178.758925
0
LINE
8
Layer 1
10
79.370934
20
178.758925
11
78.432692
21
178.572297
0
LINE
8
Layer 1
10
78.432692
20
178.572297
11
77.637288
21
178.040826
0
LINE
8
Layer 1
10
77.637288
20
178.040826
11
77.105817
21
177.245422
0
LINE
8
Layer 1
10
77.105817
20
177.245422
11
76.919189
21
176.307180
0
LINE
8
Layer 1
10
76.919189
20
176.307180
11
76.919189
21
176.307180
0
LINE
8
Layer 1
10
76.919189
20
205.411360
11
77.026840
21
204.692453
0
LINE
8
Layer 1
10
77.026840
20
204.692453
11
77.332383
21
204.049243
0
LINE
8
Layer 1
10
77.332383
20
204.049243
11
77.809704
21
203.520813
0
LINE
8
Layer 1
10
77.809704
20
203.520813
11
78.432692
21
203.146243
0
LINE
8
Layer 1
10
78.432692
20
203.146243
11
79.138071
21
202.970585
0
LINE
8
Layer 1
10
79.138071
20
202.970585
11
79.849246
21
203.006725
0
LINE
8
Layer 1
10
79.849246
20
203.006725
11
80.520115
21
203.245491
0
LINE
8
Layer 1
10
80.520115
20
203.245491
11
81.104580
21
203.677714
0
LINE
8
Layer 1
10
81.104580
20
203.677714
11
81.536803
21
204.262179
0
LINE
8
Layer 1
10
81.536803
20
204.262179
11
81.775569
21
204.933048
0
LINE
8
Layer 1
10
81.775569
20
204.933048
11
81.811709
21
205.644223
0
LINE
8
Layer 1
10
81.811709
20
205.644223
11
81.636051
21
206.349602
0
LINE
8
Layer 1
10
81.636051
20
206.349602
11
81.261481
21
206.972590
0
LINE
8
Layer 1
10
81.261481
20
206.972590
11
80.733051
21
207.449911
0
LINE
8
Layer 1
10
80.733051
20
207.449911
11
80.089841
21
207.755454
0
LINE
8
Layer 1
10
80.089841
20
207.755454
11
79.370934
21
207.863105
0
LINE
8
Layer 1
10
79.370934
20
207.863105
11
78.432692
21
207.676477
0
LINE
8
Layer 1
10
78.432692
20
207.676477
11
77.637288
21
207.145006
0
LINE
8
Layer 1
10
77.637288
20
207.145006
11
77.105817
21
206.349602
0
LINE
8
Layer 1
10
77.105817
20
206.349602
11
76.919189
21
205.411360
0
LINE
8
Layer 1
10
76.919189
20
205.411360
11
76.919189
21
205.411360
0
LINE
8
Layer 1
10
77.183768
20
233.457160
11
77.291419
21
232.738253
0
LINE
8
Layer 1
10
77.291419
20
232.738253
11
77.596962
21
232.095043
0
LINE
8
Layer 1
10
77.596962
20
232.095043
11
78.074283
21
231.566613
0
LINE
8
Layer 1
10
78.074283
20
231.566613
11
78.697271
21
231.192043
0
LINE
8
Layer 1
10
78.697271
20
231.192043
11
79.402650
21
231.016385
0
LINE
8
Layer 1
10
79.402650
20
231.016385
11
80.113825
21
231.052525
0
LINE
8
Layer 1
10
80.113825
20
231.052525
11
80.784694
21
231.291291
0
LINE
8
Layer 1
10
80.784694
20
231.291291
11
81.369159
21
231.723514
0
LINE
8
Layer 1
10
81.369159
20
231.723514
11
81.801382
21
232.307979
0
LINE
8
Layer 1
10
81.801382
20
232.307979
11
82.040148
21
232.978848
0
LINE
8
Layer 1
10
82.040148
20
232.978848
11
82.076288
21
233.690023
0
LINE
8
Layer 1
10
82.076288
20
233.690023
11
81.900630
21
234.395402
0
LINE
8
Layer 1
10
81.900630
20
234.395402
11
81.526060
21
235.018390
0
LINE
8
Layer 1
10
81.526060
20
235.018390
11
80.997630
21
235.495711
0
LINE
8
Layer 1
10
80.997630
20
235.495711
11
80.354420
21
235.801254
0
LINE
8
Layer 1
10
80.354420
20
235.801254
11
79.635513
21
235.908905
0
LINE
8
Layer 1
10
79.635513
20
235.908905
11
78.697271
21
235.722277
0
LINE
8
Layer 1
10
78.697271
20
235.722277
11
77.901867
21
235.190806
0
LINE
8
Layer 1
10
77.901867
20
235.190806
11
77.370396
21
234.395402
0
LINE
8
Layer 1
10
77.370396
20
234.395402
11
77.183768
21
233.457160
0
LINE
8
Layer 1
10
77.183768
20
233.457160
11
77.183768
21
233.457160
0
LINE
8
Layer 1
10
76.919189
20
261.503002
11
77.026840
21
260.784095
0
LINE
8
Layer 1
10
77.026840
20
260.784095
11
77.332383
21
260.140885
0
LINE
8
Layer 1
10
77.332383
20
260.140885
11
77.809704
21
259.612455
0
LINE
8
Layer 1
10
77.809704
20
259.612455
11
78.432692
21
259.237885
0
LINE
8
Layer 1
10
78.432692
20
259.237885
11
79.138071
21
259.062227
0
LINE
8
Layer 1
10
79.138071
20
259.062227
11
79.849246
21
259.098367
0
LINE
8
Layer 1
10
79.849246
20
259.098367
11
80.520115
21
259.337133
0
LINE
8
Layer 1
10
80.520115
20
259.337133
11
81.104580
21
259.769356
0
LINE
8
Layer 1
10
81.104580
20
259.769356
11
81.536803
21
260.353821
0
LINE
8
Layer 1
10
81.536803
20
260.353821
11
81.775569
21
261.024690
0
LINE
8
Layer 1
10
81.775569
20
261.024690
11
81.811709
21
261.735865
0
LINE
8
Layer 1
10
81.811709
20
261.735865
11
81.636051
21
262.441244
0
LINE
8
Layer 1
10
81.636051
20
262.441244
11
81.261481
21
263.064232
0
LINE
8
Layer 1
10
81.261481
20
263.064232
11
80.733051
21
263.541553
0
LINE
8
Layer 1
10
80.733051
20
263.541553
11
80.089841
21
263.847096
0
LINE
8
Layer 1
10
80.089841
20
263.847096
11
79.370934
21
263.954747
0
LINE
8
Layer 1
10
79.370934
20
263.954747
11
78.432692
21
263.768119
0
LINE
8
Layer 1
10
78.432692
20
263.768119
11
77.637288
21
263.236648
0
LINE
8
Layer 1
10
77.637288
20
263.236648
11
77.105817
21
262.441244
0
LINE
8
Layer 1
10
77.105817
20
262.441244
11
76.919189
21
261.503002
0
LINE
8
Layer 1
10
76.919189
20
261.503002
11
76.919189
21
261.503002
0
LINE
8
Layer 1
10
105.229615
20
92.963430
11
105.337266
21
92.244523
0
LINE
8
Layer 1
10
105.337266
20
92.244523
11
105.642809
21
91.601313
0
LINE
8
Layer 1
10
105.642809
20
91.601313
11
106.120130
21
91.072883
0
LINE
8
Layer 1
10
106.120130
20
91.072883
11
106.743118
21
90.698313
0
LINE
8
Layer 1
10
106.743118
20
90.698313
11
107.448497
21
90.522655
0
LINE
8
Layer 1
10
107.448497
20
90.522655
11
108.159672
21
90.558795
0
LINE
8
Layer 1
10
108.159672
20
90.558795
11
108.830541
21
90.797561
0
LINE
8
Layer 1
10
108.830541
20
90.797561
11
109.415006
21
91.229784
0
LINE
8
Layer 1
10
109.415006
20
91.229784
11
109.847229
21
91.814249
0
LINE
8
Layer 1
10
109.847229
20
91.814249
11
110.085995
21
92.485118
0
LINE
8
Layer 1
10
110.085995
20
92.485118
11
110.122135
21
93.196293
0
LINE
8
Layer 1
10
110.122135
20
93.196293
11
109.946477
21
93.901672
0
LINE
8
Layer 1
10
109.946477
20
93.901672
11
109.571907
21
94.524660
0
LINE
8
Layer 1
10
109.571907
20
94.524660
11
109.043477
21
95.001981
0
LINE
8
Layer 1
10
109.043477
20
95.001981
11
108.400267
21
95.307524
0
LINE
8
Layer 1
10
108.400267
20
95.307524
11
107.681360
21
95.415175
0
LINE
8
Layer 1
10
107.681360
20
95.415175
11
106.743118
21
95.228547
0
LINE
8
Layer 1
10
106.743118
20
95.228547
11
105.947714
21
94.697076
0
LINE
8
Layer 1
10
105.947714
20
94.697076
11
105.416243
21
93.901672
0
LINE
8
Layer 1
10
105.416243
20
93.901672
11
105.229615
21
92.963430
0
LINE
8
Layer 1
10
105.229615
20
92.963430
11
105.229615
21
92.963430
0
LINE
8
Layer 1
10
105.229615
20
121.009270
11
105.337266
21
120.290363
0
LINE
8
Layer 1
10
105.337266
20
120.290363
11
105.642809
21
119.647153
0
LINE
8
Layer 1
10
105.642809
20
119.647153
11
106.120130
21
119.118723
0
LINE
8
Layer 1
10
106.120130
20
119.118723
11
106.743118
21
118.744153
0
LINE
8
Layer 1
10
106.743118
20
118.744153
11
107.448497
21
118.568495
0
LINE
8
Layer 1
10
107.448497
20
118.568495
11
108.159672
21
118.604635
0
LINE
8
Layer 1
10
108.159672
20
118.604635
11
108.830541
21
118.843401
0
LINE
8
Layer 1
10
108.830541
20
118.843401
11
109.415006
21
119.275624
0
LINE
8
Layer 1
10
109.415006
20
119.275624
11
109.847229
21
119.860089
0
LINE
8
Layer 1
10
109.847229
20
119.860089
11
110.085995
21
120.530958
0
LINE
8
Layer 1
10
110.085995
20
120.530958
11
110.122135
21
121.242133
0
LINE
8
Layer 1
10
110.122135
20
121.242133
11
109.946477
21
121.947512
0
LINE
8
Layer 1
10
109.946477
20
121.947512
11
109.571907
21
122.570500
0
LINE
8
Layer 1
10
109.571907
20
122.570500
11
109.043477
21
123.047821
0
LINE
8
Layer 1
10
109.043477
20
123.047821
11
108.400267
21
123.353364
0
LINE
8
Layer 1
10
108.400267
20
123.353364
11
107.681360
21
123.461015
0
LINE
8
Layer 1
10
107.681360
20
123.461015
11
106.743118
21
123.274387
0
LINE
8
Layer 1
10
106.743118
20
123.274387
11
105.947714
21
122.742916
0
LINE
8
Layer 1
10
105.947714
20
122.742916
11
105.416243
21
121.947512
0
LINE
8
Layer 1
10
105.416243
20
121.947512
11
105.229615
21
121.009270
0
LINE
8
Layer 1
10
105.229615
20
121.009270
11
105.229615
21
121.009270
0
LINE
8
Layer 1
10
104.965035
20
149.055100
11
105.072686
21
148.336193
0
LINE
8
Layer 1
10
105.072686
20
148.336193
11
105.378229
21
147.692983
0
LINE
8
Layer 1
10
105.378229
20
147.692983
11
105.855550
21
147.164553
0
LINE
8
Layer 1
10
105.855550
20
147.164553
11
106.478538
21
146.789983
0
LINE
8
Layer 1
10
106.478538
20
146.789983
11
107.183917
21
146.614325
0
LINE
8
Layer 1
10
107.183917
20
146.614325
11
107.895092
21
146.650465
0
LINE
8
Layer 1
10
107.895092
20
146.650465
11
108.565961
21
146.889231
0
LINE
8
Layer 1
10
108.565961
20
146.889231
11
109.150426
21
147.321454
0
LINE
8
Layer 1
10
109.150426
20
147.321454
11
109.582649
21
147.905919
0
LINE
8
Layer 1
10
109.582649
20
147.905919
11
109.821415
21
148.576788
0
LINE
8
Layer 1
10
109.821415
20
148.576788
11
109.857555
21
149.287963
0
LINE
8
Layer 1
10
109.857555
20
149.287963
11
109.681897
21
149.993342
0
LINE
8
Layer 1
10
109.681897
20
149.993342
11
109.307327
21
150.616330
0
LINE
8
Layer 1
10
109.307327
20
150.616330
11
108.778897
21
151.093651
0
LINE
8
Layer 1
10
108.778897
20
151.093651
11
108.135687
21
151.399194
0
LINE
8
Layer 1
10
108.135687
20
151.399194
11
107.416780
21
151.506845
0
LINE
8
Layer 1
10
107.416780
20
151.506845
11
106.478538
21
151.320217
0
LINE
8
Layer 1
10
106.478538
20
151.320217
11
105.683134
21
150.788746
0
LINE
8
Layer 1
10
105.683134
20
150.788746
11
105.151663
21
149.993342
0
LINE
8
Layer 1
10
105.151663
20
149.993342
11
104.965035
21
149.055100
0
LINE
8
Layer 1
10
104.965035
20
149.055100
11
104.965035
21
149.055100
0
LINE
8
Layer 1
10
104.965035
20
177.365530
11
105.072686
21
176.646623
0
LINE
8
Layer 1
10
105.072686
20
176.646623
11
105.378229
21
176.003413
0
LINE
8
Layer 1
10
105.378229
20
176.003413
11
105.855550
21
175.474983
0
LINE
8
Layer 1
10
105.855550
20
175.474983
11
106.478538
21
175.100413
0
LINE
8
Layer 1
10
106.478538
20
175.100413
11
107.183917
21
174.924755
0
LINE
8
Layer 1
10
107.183917
20
174.924755
11
107.895092
21
174.960895
0
LINE
8
Layer 1
10
107.895092
20
174.960895
11
108.565961
21
175.199661
0
LINE
8
Layer 1
10
108.565961
20
175.199661
11
109.150426
21
175.631884
0
LINE
8
Layer 1
10
109.150426
20
175.631884
11
109.582649
21
176.216349
0
LINE
8
Layer 1
10
109.582649
20
176.216349
11
109.821415
21
176.887218
0
LINE
8
Layer 1
10
109.821415
20
176.887218
11
109.857555
21
177.598393
0
LINE
8
Layer 1
10
109.857555
20
177.598393
11
109.681897
21
178.303772
0
LINE
8
Layer 1
10
109.681897
20
178.303772
11
109.307327
21
178.926760
0
LINE
8
Layer 1
10
109.307327
20
178.926760
11
108.778897
21
179.404081
0
LINE
8
Layer 1
10
108.778897
20
179.404081
11
108.135687
21
179.709624
0
LINE
8
Layer 1
10
108.135687
20
179.709624
11
107.416780
21
179.817275
0
LINE
8
Layer 1
10
107.416780
20
179.817275
11
106.478538
21
179.630647
0
LINE
8
Layer 1
10
106.478538
20
179.630647
11
105.683134
21
179.099176
0
LINE
8
Layer 1
10
105.683134
20
179.099176
11
105.151663
21
178.303772
0
LINE
8
Layer 1
10
105.151663
20
178.303772
11
104.965035
21
177.365530
0
LINE
8
Layer 1
10
104.965035
20
177.365530
11
104.965035
21
177.365530
0
LINE
8
Layer 1
10
105.229615
20
205.411360
11
105.337266
21
204.692453
0
LINE
8
Layer 1
10
105.337266
20
204.692453
11
105.642809
21
204.049243
0
LINE
8
Layer 1
10
105.642809
20
204.049243
11
106.120130
21
203.520813
0
LINE
8
Layer 1
10
106.120130
20
203.520813
11
106.743118
21
203.146243
0
LINE
8
Layer 1
10
106.743118
20
203.146243
11
107.448497
21
202.970585
0
LINE
8
Layer 1
10
107.448497
20
202.970585
11
108.159672
21
203.006725
0
LINE
8
Layer 1
10
108.159672
20
203.006725
11
108.830541
21
203.245491
0
LINE
8
Layer 1
10
108.830541
20
203.245491
11
109.415006
21
203.677714
0
LINE
8
Layer 1
10
109.415006
20
203.677714
11
109.847229
21
204.262179
0
LINE
8
Layer 1
10
109.847229
20
204.262179
11
110.085995
21
204.933048
0
LINE
8
Layer 1
10
110.085995
20
204.933048
11
110.122135
21
205.644223
0
LINE
8
Layer 1
10
110.122135
20
205.644223
11
109.946477
21
206.349602
0
LINE
8
Layer 1
10
109.946477
20
206.349602
11
109.571907
21
206.972590
0
LINE
8
Layer 1
10
109.571907
20
206.972590
11
109.043477
21
207.449911
0
LINE
8
Layer 1
10
109.043477
20
207.449911
11
108.400267
21
207.755454
0
LINE
8
Layer 1
10
108.400267
20
207.755454
11
107.681360
21
207.863105
0
LINE
8
Layer 1
10
107.681360
20
207.863105
11
106.743118
21
207.676477
0
LINE
8
Layer 1
10
106.743118
20
207.676477
11
105.947714
21
207.145006
0
LINE
8
Layer 1
10
105.947714
20
207.145006
11
105.416243
21
206.349602
0
LINE
8
Layer 1
10
105.416243
20
206.349602
11
105.229615
21
205.411360
0
LINE
8
Layer 1
10
105.229615
20
205.411360
11
105.229615
21
205.411360
0
LINE
8
Layer 1
10
104.965035
20
232.927990
11
105.072686
21
232.209083
0
LINE
8
Layer 1
10
105.072686
20
232.209083
11
105.378229
21
231.565873
0
LINE
8
Layer 1
10
105.378229
20
231.565873
11
105.855550
21
231.037443
0
LINE
8
Layer 1
10
105.855550
20
231.037443
11
106.478538
21
230.662873
0
LINE
8
Layer 1
10
106.478538
20
230.662873
11
107.183917
21
230.487215
0
LINE
8
Layer 1
10
107.183917
20
230.487215
11
107.895092
21
230.523355
0
LINE
8
Layer 1
10
107.895092
20
230.523355
11
108.565961
21
230.762121
0
LINE
8
Layer 1
10
108.565961
20
230.762121
11
109.150426
21
231.194344
0
LINE
8
Layer 1
10
109.150426
20
231.194344
11
109.582649
21
231.778809
0
LINE
8
Layer 1
10
109.582649
20
231.778809
11
109.821415
21
232.449678
0
LINE
8
Layer 1
10
109.821415
20
232.449678
11
109.857555
21
233.160853
0
LINE
8
Layer 1
10
109.857555
20
233.160853
11
109.681897
21
233.866232
0
LINE
8
Layer 1
10
109.681897
20
233.866232
11
109.307327
21
234.489220
0
LINE
8
Layer 1
10
109.307327
20
234.489220
11
108.778897
21
234.966541
0
LINE
8
Layer 1
10
108.778897
20
234.966541
11
108.135687
21
235.272084
0
LINE
8
Layer 1
10
108.135687
20
235.272084
11
107.416780
21
235.379735
0
LINE
8
Layer 1
10
107.416780
20
235.379735
11
106.478538
21
235.193107
0
LINE
8
Layer 1
10
106.478538
20
235.193107
11
105.683134
21
234.661636
0
LINE
8
Layer 1
10
105.683134
20
234.661636
11
105.151663
21
233.866232
0
LINE
8
Layer 1
10
105.151663
20
233.866232
11
104.965035
21
232.927990
0
LINE
8
Layer 1
10
104.965035
20
232.927990
11
104.965035
21
232.927990
0
LINE
8
Layer 1
10
104.965035
20
261.238414
11
105.072686
21
260.519507
0
LINE
8
Layer 1
10
105.072686
20
260.519507
11
105.378229
21
259.876297
0
LINE
8
Layer 1
10
105.378229
20
259.876297
11
105.855550
21
259.347867
0
LINE
8
Layer 1
10
105.855550
20
259.347867
11
106.478538
21
258.973297
0
LINE
8
Layer 1
10
106.478538
20
258.973297
11
107.183917
21
258.797639
0
LINE
8
Layer 1
10
107.183917
20
258.797639
11
107.895092
21
258.833779
0
LINE
8
Layer 1
10
107.895092
20
258.833779
11
108.565961
21
259.072545
0
LINE
8
Layer 1
10
108.565961
20
259.072545
11
109.150426
21
259.504768
0
LINE
8
Layer 1
10
109.150426
20
259.504768
11
109.582649
21
260.089233
0
LINE
8
Layer 1
10
109.582649
20
260.089233
11
109.821415
21
260.760102
0
LINE
8
Layer 1
10
109.821415
20
260.760102
11
109.857555
21
261.471277
0
LINE
8
Layer 1
10
109.857555
20
261.471277
11
109.681897
21
262.176656
0
LINE
8
Layer 1
10
109.681897
20
262.176656
11
109.307327
21
262.799644
0
LINE
8
Layer 1
10
109.307327
20
262.799644
11
108.778897
21
263.276965
0
LINE
8
Layer 1
10
108.778897
20
263.276965
11
108.135687
21
263.582508
0
LINE
8
Layer 1
10
108.135687
20
263.582508
11
107.416780
21
263.690159
0
LINE
8
Layer 1
10
107.416780
20
263.690159
11
106.478538
21
263.503531
0
LINE
8
Layer 1
10
106.478538
20
263.503531
11
105.683134
21
262.972060
0
LINE
8
Layer 1
10
105.683134
20
262.972060
11
105.151663
21
262.176656
0
LINE
8
Layer 1
10
105.151663
20
262.176656
11
104.965035
21
261.238414
0
LINE
8
Layer 1
10
104.965035
20
261.238414
11
104.965035
21
261.238414
0
LINE
8
Layer 1
10
133.010845
20
261.503002
11
133.118496
21
260.784095
0
LINE
8
Layer 1
10
133.118496
20
260.784095
11
133.424039
21
260.140885
0
LINE
8
Layer 1
10
133.424039
20
260.140885
11
133.901360
21
259.612455
0
LINE
8
Layer 1
10
133.901360
20
259.612455
11
134.524348
21
259.237885
0
LINE
8
Layer 1
10
134.524348
20
259.237885
11
135.229727
21
259.062227
0
LINE
8
Layer 1
10
135.229727
20
259.062227
11
135.940902
21
259.098367
0
LINE
8
Layer 1
10
135.940902
20
259.098367
11
136.611771
21
259.337133
0
LINE
8
Layer 1
10
136.611771
20
259.337133
11
137.196236
21
259.769356
0
LINE
8
Layer 1
10
137.196236
20
259.769356
11
137.628459
21
260.353821
0
LINE
8
Layer 1
10
137.628459
20
260.353821
11
137.867225
21
261.024690
0
LINE
8
Layer 1
10
137.867225
20
261.024690
11
137.903365
21
261.735865
0
LINE
8
Layer 1
10
137.903365
20
261.735865
11
137.727707
21
262.441244
0
LINE
8
Layer 1
10
137.727707
20
262.441244
11
137.353137
21
263.064232
0
LINE
8
Layer 1
10
137.353137
20
263.064232
11
136.824707
21
263.541553
0
LINE
8
Layer 1
10
136.824707
20
263.541553
11
136.181497
21
263.847096
0
LINE
8
Layer 1
10
136.181497
20
263.847096
11
135.462590
21
263.954747
0
LINE
8
Layer 1
10
135.462590
20
263.954747
11
134.524348
21
263.768119
0
LINE
8
Layer 1
10
134.524348
20
263.768119
11
133.728944
21
263.236648
0
LINE
8
Layer 1
10
133.728944
20
263.236648
11
133.197473
21
262.441244
0
LINE
8
Layer 1
10
133.197473
20
262.441244
11
133.010845
21
261.503002
0
LINE
8
Layer 1
10
133.010845
20
261.503002
11
133.010845
21
261.503002
0
LINE
8
Layer 1
10
133.010845
20
232.927990
11
133.118496
21
232.209083
0
LINE
8
Layer 1
10
133.118496
20
232.209083
11
133.424039
21
231.565873
0
LINE
8
Layer 1
10
133.424039
20
231.565873
11
133.901360
21
231.037443
0
LINE
8
Layer 1
10
133.901360
20
231.037443
11
134.524348
21
230.662873
0
LINE
8
Layer 1
10
134.524348
20
230.662873
11
135.229727
21
230.487215
0
LINE
8
Layer 1
10
135.229727
20
230.487215
11
135.940902
21
230.523355
0
LINE
8
Layer 1
10
135.940902
20
230.523355
11
136.611771
21
230.762121
0
LINE
8
Layer 1
10
136.611771
20
230.762121
11
137.196236
21
231.194344
0
LINE
8
Layer 1
10
137.196236
20
231.194344
11
137.628459
21
231.778809
0
LINE
8
Layer 1
10
137.628459
20
231.778809
11
137.867225
21
232.449678
0
LINE
8
Layer 1
10
137.867225
20
232.449678
11
137.903365
21
233.160853
0
LINE
8
Layer 1
10
137.903365
20
233.160853
11
137.727707
21
233.866232
0
LINE
8
Layer 1
10
137.727707
20
233.866232
11
137.353137
21
234.489220
0
LINE
8
Layer 1
10
137.353137
20
234.489220
11
136.824707
21
234.966541
0
LINE
8
Layer 1
10
136.824707
20
234.966541
11
136.181497
21
235.272084
0
LINE
8
Layer 1
10
136.181497
20
235.272084
11
135.462590
21
235.379735
0
LINE
8
Layer 1
10
135.462590
20
235.379735
11
134.524348
21
235.193107
0
LINE
8
Layer 1
10
134.524348
20
235.193107
11
133.728944
21
234.661636
0
LINE
8
Layer 1
10
133.728944
20
234.661636
11
133.197473
21
233.866232
0
LINE
8
Layer 1
10
133.197473
20
233.866232
11
133.010845
21
232.927990
0
LINE
8
Layer 1
10
133.010845
20
232.927990
11
133.010845
21
232.927990
0
LINE
8
Layer 1
10
133.275425
20
205.146780
11
133.383076
21
204.427873
0
LINE
8
Layer 1
10
133.383076
20
204.427873
11
133.688619
21
203.784663
0
LINE
8
Layer 1
10
133.688619
20
203.784663
11
134.165940
21
203.256233
0
LINE
8
Layer 1
10
134.165940
20
203.256233
11
134.788928
21
202.881663
0
LINE
8
Layer 1
10
134.788928
20
202.881663
11
135.494307
21
202.706005
0
LINE
8
Layer 1
10
135.494307
20
202.706005
11
136.205482
21
202.742145
0
LINE
8
Layer 1
10
136.205482
20
202.742145
11
136.876351
21
202.980911
0
LINE
8
Layer 1
10
136.876351
20
202.980911
11
137.460816
21
203.413134
0
LINE
8
Layer 1
10
137.460816
20
203.413134
11
137.893039
21
203.997599
0
LINE
8
Layer 1
10
137.893039
20
203.997599
11
138.131805
21
204.668468
0
LINE
8
Layer 1
10
138.131805
20
204.668468
11
138.167945
21
205.379643
0
LINE
8
Layer 1
10
138.167945
20
205.379643
11
137.992287
21
206.085022
0
LINE
8
Layer 1
10
137.992287
20
206.085022
11
137.617717
21
206.708010
0
LINE
8
Layer 1
10
137.617717
20
206.708010
11
137.089287
21
207.185331
0
LINE
8
Layer 1
10
137.089287
20
207.185331
11
136.446077
21
207.490874
0
LINE
8
Layer 1
10
136.446077
20
207.490874
11
135.727170
21
207.598525
0
LINE
8
Layer 1
10
135.727170
20
207.598525
11
134.772840
21
207.405855
0
LINE
8
Layer 1
10
134.772840
20
207.405855
11
133.993524
21
206.880426
0
LINE
8
Layer 1
10
133.993524
20
206.880426
11
133.468095
21
206.101110
0
LINE
8
Layer 1
10
133.468095
20
206.101110
11
133.275425
21
205.146780
0
LINE
8
Layer 1
10
133.275425
20
205.146780
11
133.275425
21
205.146780
0
LINE
8
Layer 1
10
133.010845
20
177.100940
11
133.118496
21
176.382033
0
LINE
8
Layer 1
10
133.118496
20
176.382033
11
133.424039
21
175.738823
0
LINE
8
Layer 1
10
133.424039
20
175.738823
11
133.901360
21
175.210393
0
LINE
8
Layer 1
10
133.901360
20
175.210393
11
134.524348
21
174.835823
0
LINE
8
Layer 1
10
134.524348
20
174.835823
11
135.229727
21
174.660165
0
LINE
8
Layer 1
10
135.229727
20
174.660165
11
135.940902
21
174.696305
0
LINE
8
Layer 1
10
135.940902
20
174.696305
11
136.611771
21
174.935071
0
LINE
8
Layer 1
10
136.611771
20
174.935071
11
137.196236
21
175.367294
0
LINE
8
Layer 1
10
137.196236
20
175.367294
11
137.628459
21
175.951759
0
LINE
8
Layer 1
10
137.628459
20
175.951759
11
137.867225
21
176.622628
0
LINE
8
Layer 1
10
137.867225
20
176.622628
11
137.903365
21
177.333803
0
LINE
8
Layer 1
10
137.903365
20
177.333803
11
137.727707
21
178.039182
0
LINE
8
Layer 1
10
137.727707
20
178.039182
11
137.353137
21
178.662170
0
LINE
8
Layer 1
10
137.353137
20
178.662170
11
136.824707
21
179.139491
0
LINE
8
Layer 1
10
136.824707
20
179.139491
11
136.181497
21
179.445034
0
LINE
8
Layer 1
10
136.181497
20
179.445034
11
135.462590
21
179.552685
0
LINE
8
Layer 1
10
135.462590
20
179.552685
11
134.524348
21
179.366057
0
LINE
8
Layer 1
10
134.524348
20
179.366057
11
133.728944
21
178.834586
0
LINE
8
Layer 1
10
133.728944
20
178.834586
11
133.197473
21
178.039182
0
LINE
8
Layer 1
10
133.197473
20
178.039182
11
133.010845
21
177.100940
0
LINE
8
Layer 1
10
133.010845
20
177.100940
11
133.010845
21
177.100940
0
LINE
8
Layer 1
10
133.275425
20
149.319690
11
133.383076
21
148.600783
0
LINE
8
Layer 1
10
133.383076
20
148.600783
11
133.688619
21
147.957573
0
LINE
8
Layer 1
10
133.688619
20
147.957573
11
134.165940
21
147.429143
0
LINE
8
Layer 1
10
134.165940
20
147.429143
11
134.788928
21
147.054573
0
LINE
8
Layer 1
10
134.788928
20
147.054573
11
135.494307
21
146.878915
0
LINE
8
Layer 1
10
135.494307
20
146.878915
11
136.205482
21
146.915055
0
LINE
8
Layer 1
10
136.205482
20
146.915055
11
136.876351
21
147.153821
0
LINE
8
Layer 1
10
136.876351
20
147.153821
11
137.460816
21
147.586044
0
LINE
8
Layer 1
10
137.460816
20
147.586044
11
137.893039
21
148.170509
0
LINE
8
Layer 1
10
137.893039
20
148.170509
11
138.131805
21
148.841378
0
LINE
8
Layer 1
10
138.131805
20
148.841378
11
138.167945
21
149.552553
0
LINE
8
Layer 1
10
138.167945
20
149.552553
11
137.992287
21
150.257932
0
LINE
8
Layer 1
10
137.992287
20
150.257932
11
137.617717
21
150.880920
0
LINE
8
Layer 1
10
137.617717
20
150.880920
11
137.089287
21
151.358241
0
LINE
8
Layer 1
10
137.089287
20
151.358241
11
136.446077
21
151.663784
0
LINE
8
Layer 1
10
136.446077
20
151.663784
11
135.727170
21
151.771435
0
LINE
8
Layer 1
10
135.727170
20
151.771435
11
134.772840
21
151.578765
0
LINE
8
Layer 1
10
134.772840
20
151.578765
11
133.993524
21
151.053336
0
LINE
8
Layer 1
10
133.993524
20
151.053336
11
133.468095
21
150.274020
0
LINE
8
Layer 1
10
133.468095
20
150.274020
11
133.275425
21
149.319690
0
LINE
8
Layer 1
10
133.275425
20
149.319690
11
133.275425
21
149.319690
0
LINE
8
Layer 1
10
133.010845
20
121.538440
11
133.118496
21
120.819533
0
LINE
8
Layer 1
10
133.118496
20
120.819533
11
133.424039
21
120.176323
0
LINE
8
Layer 1
10
133.424039
20
120.176323
11
133.901360
21
119.647893
0
LINE
8
Layer 1
10
133.901360
20
119.647893
11
134.524348
21
119.273323
0
LINE
8
Layer 1
10
134.524348
20
119.273323
11
135.229727
21
119.097665
0
LINE
8
Layer 1
10
135.229727
20
119.097665
11
135.940902
21
119.133805
0
LINE
8
Layer 1
10
135.940902
20
119.133805
11
136.611771
21
119.372571
0
LINE
8
Layer 1
10
136.611771
20
119.372571
11
137.196236
21
119.804794
0
LINE
8
Layer 1
10
137.196236
20
119.804794
11
137.628459
21
120.389259
0
LINE
8
Layer 1
10
137.628459
20
120.389259
11
137.867225
21
121.060128
0
LINE
8
Layer 1
10
137.867225
20
121.060128
11
137.903365
21
121.771303
0
LINE
8
Layer 1
10
137.903365
20
121.771303
11
137.727707
21
122.476682
0
LINE
8
Layer 1
10
137.727707
20
122.476682
11
137.353137
21
123.099670
0
LINE
8
Layer 1
10
137.353137
20
123.099670
11
136.824707
21
123.576991
0
LINE
8
Layer 1
10
136.824707
20
123.576991
11
136.181497
21
123.882534
0
LINE
8
Layer 1
10
136.181497
20
123.882534
11
135.462590
21
123.990185
0
LINE
8
Layer 1
10
135.462590
20
123.990185
11
134.524348
21
123.803557
0
LINE
8
Layer 1
10
134.524348
20
123.803557
11
133.728944
21
123.272086
0
LINE
8
Layer 1
10
133.728944
20
123.272086
11
133.197473
21
122.476682
0
LINE
8
Layer 1
10
133.197473
20
122.476682
11
133.010845
21
121.538440
0
LINE
8
Layer 1
10
133.010845
20
121.538440
11
133.010845
21
121.538440
0
LINE
8
Layer 1
10
133.010845
20
93.228020
11
133.118496
21
92.509113
0
LINE
8
Layer 1
10
133.118496
20
92.509113
11
133.424039
21
91.865903
0
LINE
8
Layer 1
10
133.424039
20
91.865903
11
133.901360
21
91.337473
0
LINE
8
Layer 1
10
133.901360
20
91.337473
11
134.524348
21
90.962903
0
LINE
8
Layer 1
10
134.524348
20
90.962903
11
135.229727
21
90.787245
0
LINE
8
Layer 1
10
135.229727
20
90.787245
11
135.940902
21
90.823385
0
LINE
8
Layer 1
10
135.940902
20
90.823385
11
136.611771
21
91.062151
0
LINE
8
Layer 1
10
136.611771
20
91.062151
11
137.196236
21
91.494374
0
LINE
8
Layer 1
10
137.196236
20
91.494374
11
137.628459
21
92.078839
0
LINE
8
Layer 1
10
137.628459
20
92.078839
11
137.867225
21
92.749708
0
LINE
8
Layer 1
10
137.867225
20
92.749708
11
137.903365
21
93.460883
0
LINE
8
Layer 1
10
137.903365
20
93.460883
11
137.727707
21
94.166262
0
LINE
8
Layer 1
10
137.727707
20
94.166262
11
137.353137
21
94.789250
0
LINE
8
Layer 1
10
137.353137
20
94.789250
11
136.824707
21
95.266571
0
LINE
8
Layer 1
10
136.824707
20
95.266571
11
136.181497
21
95.572114
0
LINE
8
Layer 1
10
136.181497
20
95.572114
11
135.462590
21
95.679765
0
LINE
8
Layer 1
10
135.462590
20
95.679765
11
134.524348
21
95.493137
0
LINE
8
Layer 1
10
134.524348
20
95.493137
11
133.728944
21
94.961666
0
LINE
8
Layer 1
10
133.728944
20
94.961666
11
133.197473
21
94.166262
0
LINE
8
Layer 1
10
133.197473
20
94.166262
11
133.010845
21
93.228020
0
LINE
8
Layer 1
10
133.010845
20
93.228020
11
133.010845
21
93.228020
0
LINE
8
Layer 1
10
161.056675
20
92.963430
11
161.164326
21
92.244523
0
LINE
8
Layer 1
10
161.164326
20
92.244523
11
161.469869
21
91.601313
0
LINE
8
Layer 1
10
161.469869
20
91.601313
11
161.947190
21
91.072883
0
LINE
8
Layer 1
10
161.947190
20
91.072883
11
162.570178
21
90.698313
0
LINE
8
Layer 1
10
162.570178
20
90.698313
11
163.275557
21
90.522655
0
LINE
8
Layer 1
10
163.275557
20
90.522655
11
163.986732
21
90.558795
0
LINE
8
Layer 1
10
163.986732
20
90.558795
11
164.657601
21
90.797561
0
LINE
8
Layer 1
10
164.657601
20
90.797561
11
165.242066
21
91.229784
0
LINE
8
Layer 1
10
165.242066
20
91.229784
11
165.674289
21
91.814249
0
LINE
8
Layer 1
10
165.674289
20
91.814249
11
165.913055
21
92.485118
0
LINE
8
Layer 1
10
165.913055
20
92.485118
11
165.949195
21
93.196293
0
LINE
8
Layer 1
10
165.949195
20
93.196293
11
165.773537
21
93.901672
0
LINE
8
Layer 1
10
165.773537
20
93.901672
11
165.398967
21
94.524660
0
LINE
8
Layer 1
10
165.398967
20
94.524660
11
164.870537
21
95.001981
0
LINE
8
Layer 1
10
164.870537
20
95.001981
11
164.227327
21
95.307524
0
LINE
8
Layer 1
10
164.227327
20
95.307524
11
163.508420
21
95.415175
0
LINE
8
Layer 1
10
163.508420
20
95.415175
11
162.570178
21
95.228547
0
LINE
8
Layer 1
10
162.570178
20
95.228547
11
161.774774
21
94.697076
0
LINE
8
Layer 1
10
161.774774
20
94.697076
11
161.243303
21
93.901672
0
LINE
8
Layer 1
10
161.243303
20
93.901672
11
161.056675
21
92.963430
0
LINE
8
Layer 1
10
161.056675
20
92.963430
11
161.056675
21
92.963430
0
LINE
8
Layer 1
10
161.056675
20
121.273850
11
161.164326
21
120.554943
0
LINE
8
Layer 1
10
161.164326
20
120.554943
11
161.469869
21
119.911733
0
LINE
8
Layer 1
10
161.469869
20
119.911733
11
161.947190
21
119.383303
0
LINE
8
Layer 1
10
161.947190
20
119.383303
11
162.570178
21
119.008733
0
LINE
8
Layer 1
10
162.570178
20
119.008733
11
163.275557
21
118.833075
0
LINE
8
Layer 1
10
163.275557
20
118.833075
11
163.986732
21
118.869215
0
LINE
8
Layer 1
10
163.986732
20
118.869215
11
164.657601
21
119.107981
0
LINE
8
Layer 1
10
164.657601
20
119.107981
11
165.242066
21
119.540204
0
LINE
8
Layer 1
10
165.242066
20
119.540204
11
165.674289
21
120.124669
0
LINE
8
Layer 1
10
165.674289
20
120.124669
11
165.913055
21
120.795538
0
LINE
8
Layer 1
10
165.913055
20
120.795538
11
165.949195
21
121.506713
0
LINE
8
Layer 1
10
165.949195
20
121.506713
11
165.773537
21
122.212092
0
LINE
8
Layer 1
10
165.773537
20
122.212092
11
165.398967
21
122.835080
0
LINE
8
Layer 1
10
165.398967
20
122.835080
11
164.870537
21
123.312401
0
LINE
8
Layer 1
10
164.870537
20
123.312401
11
164.227327
21
123.617944
0
LINE
8
Layer 1
10
164.227327
20
123.617944
11
163.508420
21
123.725595
0
LINE
8
Layer 1
10
163.508420
20
123.725595
11
162.554090
21
123.532925
0
LINE
8
Layer 1
10
162.554090
20
123.532925
11
161.774774
21
123.007496
0
LINE
8
Layer 1
10
161.774774
20
123.007496
11
161.249345
21
122.228180
0
LINE
8
Layer 1
10
161.249345
20
122.228180
11
161.056675
21
121.273850
0
LINE
8
Layer 1
10
161.056675
20
121.273850
11
161.056675
21
121.273850
0
LINE
8
Layer 1
10
161.321265
20
149.055100
11
161.428916
21
148.336193
0
LINE
8
Layer 1
10
161.428916
20
148.336193
11
161.734459
21
147.692983
0
LINE
8
Layer 1
10
161.734459
20
147.692983
11
162.211780
21
147.164553
0
LINE
8
Layer 1
10
162.211780
20
147.164553
11
162.834768
21
146.789983
0
LINE
8
Layer 1
10
162.834768
20
146.789983
11
163.540147
21
146.614325
0
LINE
8
Layer 1
10
163.540147
20
146.614325
11
164.251322
21
146.650465
0
LINE
8
Layer 1
10
164.251322
20
146.650465
11
164.922191
21
146.889231
0
LINE
8
Layer 1
10
164.922191
20
146.889231
11
165.506656
21
147.321454
0
LINE
8
Layer 1
10
165.506656
20
147.321454
11
165.938879
21
147.905919
0
LINE
8
Layer 1
10
165.938879
20
147.905919
11
166.177645
21
148.576788
0
LINE
8
Layer 1
10
166.177645
20
148.576788
11
166.213785
21
149.287963
0
LINE
8
Layer 1
10
166.213785
20
149.287963
11
166.038127
21
149.993342
0
LINE
8
Layer 1
10
166.038127
20
149.993342
11
165.663557
21
150.616330
0
LINE
8
Layer 1
10
165.663557
20
150.616330
11
165.135127
21
151.093651
0
LINE
8
Layer 1
10
165.135127
20
151.093651
11
164.491917
21
151.399194
0
LINE
8
Layer 1
10
164.491917
20
151.399194
11
163.773010
21
151.506845
0
LINE
8
Layer 1
10
163.773010
20
151.506845
11
162.834768
21
151.320217
0
LINE
8
Layer 1
10
162.834768
20
151.320217
11
162.039364
21
150.788746
0
LINE
8
Layer 1
10
162.039364
20
150.788746
11
161.507893
21
149.993342
0
LINE
8
Layer 1
10
161.507893
20
149.993342
11
161.321265
21
149.055100
0
LINE
8
Layer 1
10
161.321265
20
149.055100
11
161.321265
21
149.055100
0
LINE
8
Layer 1
10
161.321265
20
177.100940
11
161.428916
21
176.382033
0
LINE
8
Layer 1
10
161.428916
20
176.382033
11
161.734459
21
175.738823
0
LINE
8
Layer 1
10
161.734459
20
175.738823
11
162.211780
21
175.210393
0
LINE
8
Layer 1
10
162.211780
20
175.210393
11
162.834768
21
174.835823
0
LINE
8
Layer 1
10
162.834768
20
174.835823
11
163.540147
21
174.660165
0
LINE
8
Layer 1
10
163.540147
20
174.660165
11
164.251322
21
174.696305
0
LINE
8
Layer 1
10
164.251322
20
174.696305
11
164.922191
21
174.935071
0
LINE
8
Layer 1
10
164.922191
20
174.935071
11
165.506656
21
175.367294
0
LINE
8
Layer 1
10
165.506656
20
175.367294
11
165.938879
21
175.951759
0
LINE
8
Layer 1
10
165.938879
20
175.951759
11
166.177645
21
176.622628
0
LINE
8
Layer 1
10
166.177645
20
176.622628
11
166.213785
21
177.333803
0
LINE
8
Layer 1
10
166.213785
20
177.333803
11
166.038127
21
178.039182
0
LINE
8
Layer 1
10
166.038127
20
178.039182
11
165.663557
21
178.662170
0
LINE
8
Layer 1
10
165.663557
20
178.662170
11
165.135127
21
179.139491
0
LINE
8
Layer 1
10
165.135127
20
179.139491
11
164.491917
21
179.445034
0
LINE
8
Layer 1
10
164.491917
20
179.445034
11
163.773010
21
179.552685
0
LINE
8
Layer 1
10
163.773010
20
179.552685
11
162.834768
21
179.366057
0
LINE
8
Layer 1
10
162.834768
20
179.366057
11
162.039364
21
178.834586
0
LINE
8
Layer 1
10
162.039364
20
178.834586
11
161.507893
21
178.039182
0
LINE
8
Layer 1
10
161.507893
20
178.039182
11
161.321265
21
177.100940
0
LINE
8
Layer 1
10
161.321265
20
177.100940
11
161.321265
21
177.100940
0
LINE
8
Layer 1
10
161.321265
20
205.146780
11
161.428916
21
204.427873
0
LINE
8
Layer 1
10
161.428916
20
204.427873
11
161.734459
21
203.784663
0
LINE
8
Layer 1
10
161.734459
20
203.784663
11
162.211780
21
203.256233
0
LINE
8
Layer 1
10
162.211780
20
203.256233
11
162.834768
21
202.881663
0
LINE
8
Layer 1
10
162.834768
20
202.881663
11
163.540147
21
202.706005
0
LINE
8
Layer 1
10
163.540147
20
202.706005
11
164.251322
21
202.742145
0
LINE
8
Layer 1
10
164.251322
20
202.742145
11
164.922191
21
202.980911
0
LINE
8
Layer 1
10
164.922191
20
202.980911
11
165.506656
21
203.413134
0
LINE
8
Layer 1
10
165.506656
20
203.413134
11
165.938879
21
203.997599
0
LINE
8
Layer 1
10
165.938879
20
203.997599
11
166.177645
21
204.668468
0
LINE
8
Layer 1
10
166.177645
20
204.668468
11
166.213785
21
205.379643
0
LINE
8
Layer 1
10
166.213785
20
205.379643
11
166.038127
21
206.085022
0
LINE
8
Layer 1
10
166.038127
20
206.085022
11
165.663557
21
206.708010
0
LINE
8
Layer 1
10
165.663557
20
206.708010
11
165.135127
21
207.185331
0
LINE
8
Layer 1
10
165.135127
20
207.185331
11
164.491917
21
207.490874
0
LINE
8
Layer 1
10
164.491917
20
207.490874
11
163.773010
21
207.598525
0
LINE
8
Layer 1
10
163.773010
20
207.598525
11
162.834768
21
207.411897
0
LINE
8
Layer 1
10
162.834768
20
207.411897
11
162.039364
21
206.880426
0
LINE
8
Layer 1
10
162.039364
20
206.880426
11
161.507893
21
206.085022
0
LINE
8
Layer 1
10
161.507893
20
206.085022
11
161.321265
21
205.146780
0
LINE
8
Layer 1
10
161.321265
20
205.146780
11
161.321265
21
205.146780
0
LINE
8
Layer 1
10
161.321265
20
232.927990
11
161.428916
21
232.209083
0
LINE
8
Layer 1
10
161.428916
20
232.209083
11
161.734459
21
231.565873
0
LINE
8
Layer 1
10
161.734459
20
231.565873
11
162.211780
21
231.037443
0
LINE
8
Layer 1
10
162.211780
20
231.037443
11
162.834768
21
230.662873
0
LINE
8
Layer 1
10
162.834768
20
230.662873
11
163.540147
21
230.487215
0
LINE
8
Layer 1
10
163.540147
20
230.487215
11
164.251322
21
230.523355
0
LINE
8
Layer 1
10
164.251322
20
230.523355
11
164.922191
21
230.762121
0
LINE
8
Layer 1
10
164.922191
20
230.762121
11
165.506656
21
231.194344
0
LINE
8
Layer 1
10
165.506656
20
231.194344
11
165.938879
21
231.778809
0
LINE
8
Layer 1
10
165.938879
20
231.778809
11
166.177645
21
232.449678
0
LINE
8
Layer 1
10
166.177645
20
232.449678
11
166.213785
21
233.160853
0
LINE
8
Layer 1
10
166.213785
20
233.160853
11
166.038127
21
233.866232
0
LINE
8
Layer 1
10
166.038127
20
233.866232
11
165.663557
21
234.489220
0
LINE
8
Layer 1
10
165.663557
20
234.489220
11
165.135127
21
234.966541
0
LINE
8
Layer 1
10
165.135127
20
234.966541
11
164.491917
21
235.272084
0
LINE
8
Layer 1
10
164.491917
20
235.272084
11
163.773010
21
235.379735
0
LINE
8
Layer 1
10
163.773010
20
235.379735
11
162.834768
21
235.193107
0
LINE
8
Layer 1
10
162.834768
20
235.193107
11
162.039364
21
234.661636
0
LINE
8
Layer 1
10
162.039364
20
234.661636
11
161.507893
21
233.866232
0
LINE
8
Layer 1
10
161.507893
20
233.866232
11
161.321265
21
232.927990
0
LINE
8
Layer 1
10
161.321265
20
232.927990
11
161.321265
21
232.927990
0
LINE
8
Layer 1
10
161.056675
20
261.503002
11
161.164326
21
260.784095
0
LINE
8
Layer 1
10
161.164326
20
260.784095
11
161.469869
21
260.140885
0
LINE
8
Layer 1
10
161.469869
20
260.140885
11
161.947190
21
259.612455
0
LINE
8
Layer 1
10
161.947190
20
259.612455
11
162.570178
21
259.237885
0
LINE
8
Layer 1
10
162.570178
20
259.237885
11
163.275557
21
259.062227
0
LINE
8
Layer 1
10
163.275557
20
259.062227
11
163.986732
21
259.098367
0
LINE
8
Layer 1
10
163.986732
20
259.098367
11
164.657601
21
259.337133
0
LINE
8
Layer 1
10
164.657601
20
259.337133
11
165.242066
21
259.769356
0
LINE
8
Layer 1
10
165.242066
20
259.769356
11
165.674289
21
260.353821
0
LINE
8
Layer 1
10
165.674289
20
260.353821
11
165.913055
21
261.024690
0
LINE
8
Layer 1
10
165.913055
20
261.024690
11
165.949195
21
261.735865
0
LINE
8
Layer 1
10
165.949195
20
261.735865
11
165.773537
21
262.441244
0
LINE
8
Layer 1
10
165.773537
20
262.441244
11
165.398967
21
263.064232
0
LINE
8
Layer 1
10
165.398967
20
263.064232
11
164.870537
21
263.541553
0
LINE
8
Layer 1
10
164.870537
20
263.541553
11
164.227327
21
263.847096
0
LINE
8
Layer 1
10
164.227327
20
263.847096
11
163.508420
21
263.954747
0
LINE
8
Layer 1
10
163.508420
20
263.954747
11
162.554090
21
263.762077
0
LINE
8
Layer 1
10
162.554090
20
263.762077
11
161.774774
21
263.236648
0
LINE
8
Layer 1
10
161.774774
20
263.236648
11
161.249345
21
262.457332
0
LINE
8
Layer 1
10
161.249345
20
262.457332
11
161.056675
21
261.503002
0
LINE
8
Layer 1
10
161.056675
20
261.503002
11
161.056675
21
261.503002
0
LINE
8
Layer 1
10
189.102515
20
261.238414
11
189.210166
21
260.519507
0
LINE
8
Layer 1
10
189.210166
20
260.519507
11
189.515709
21
259.876297
0
LINE
8
Layer 1
10
189.515709
20
259.876297
11
189.993030
21
259.347867
0
LINE
8
Layer 1
10
189.993030
20
259.347867
11
190.616018
21
258.973297
0
LINE
8
Layer 1
10
190.616018
20
258.973297
11
191.321397
21
258.797639
0
LINE
8
Layer 1
10
191.321397
20
258.797639
11
192.032572
21
258.833779
0
LINE
8
Layer 1
10
192.032572
20
258.833779
11
192.703441
21
259.072545
0
LINE
8
Layer 1
10
192.703441
20
259.072545
11
193.287906
21
259.504768
0
LINE
8
Layer 1
10
193.287906
20
259.504768
11
193.720129
21
260.089233
0
LINE
8
Layer 1
10
193.720129
20
260.089233
11
193.958895
21
260.760102
0
LINE
8
Layer 1
10
193.958895
20
260.760102
11
193.995035
21
261.471277
0
LINE
8
Layer 1
10
193.995035
20
261.471277
11
193.819377
21
262.176656
0
LINE
8
Layer 1
10
193.819377
20
262.176656
11
193.444807
21
262.799644
0
LINE
8
Layer 1
10
193.444807
20
262.799644
11
192.916377
21
263.276965
0
LINE
8
Layer 1
10
192.916377
20
263.276965
11
192.273167
21
263.582508
0
LINE
8
Layer 1
10
192.273167
20
263.582508
11
191.554260
21
263.690159
0
LINE
8
Layer 1
10
191.554260
20
263.690159
11
190.616018
21
263.503531
0
LINE
8
Layer 1
10
190.616018
20
263.503531
11
189.820614
21
262.972060
0
LINE
8
Layer 1
10
189.820614
20
262.972060
11
189.289143
21
262.176656
0
LINE
8
Layer 1
10
189.289143
20
262.176656
11
189.102515
21
261.238414
0
LINE
8
Layer 1
10
189.102515
20
261.238414
11
189.102515
21
261.238414
0
LINE
8
Layer 1
10
188.837925
20
233.192570
11
188.945576
21
232.473663
0
LINE
8
Layer 1
10
188.945576
20
232.473663
11
189.251119
21
231.830453
0
LINE
8
Layer 1
10
189.251119
20
231.830453
11
189.728440
21
231.302023
0
LINE
8
Layer 1
10
189.728440
20
231.302023
11
190.351428
21
230.927453
0
LINE
8
Layer 1
10
190.351428
20
230.927453
11
191.056807
21
230.751795
0
LINE
8
Layer 1
10
191.056807
20
230.751795
11
191.767982
21
230.787935
0
LINE
8
Layer 1
10
191.767982
20
230.787935
11
192.438851
21
231.026701
0
LINE
8
Layer 1
10
192.438851
20
231.026701
11
193.023316
21
231.458924
0
LINE
8
Layer 1
10
193.023316
20
231.458924
11
193.455539
21
232.043389
0
LINE
8
Layer 1
10
193.455539
20
232.043389
11
193.694305
21
232.714258
0
LINE
8
Layer 1
10
193.694305
20
232.714258
11
193.730445
21
233.425433
0
LINE
8
Layer 1
10
193.730445
20
233.425433
11
193.554787
21
234.130812
0
LINE
8
Layer 1
10
193.554787
20
234.130812
11
193.180217
21
234.753800
0
LINE
8
Layer 1
10
193.180217
20
234.753800
11
192.651787
21
235.231121
0
LINE
8
Layer 1
10
192.651787
20
235.231121
11
192.008577
21
235.536664
0
LINE
8
Layer 1
10
192.008577
20
235.536664
11
191.289670
21
235.644315
0
LINE
8
Layer 1
10
191.289670
20
235.644315
11
190.351428
21
235.457687
0
LINE
8
Layer 1
10
190.351428
20
235.457687
11
189.556024
21
234.926216
0
LINE
8
Layer 1
10
189.556024
20
234.926216
11
189.024553
21
234.130812
0
LINE
8
Layer 1
10
189.024553
20
234.130812
11
188.837925
21
233.192570
0
LINE
8
Layer 1
10
188.837925
20
233.192570
11
188.837925
21
233.192570
0
LINE
8
Layer 1
10
189.367085
20
204.882190
11
189.474736
21
204.163283
0
LINE
8
Layer 1
10
189.474736
20
204.163283
11
189.780279
21
203.520073
0
LINE
8
Layer 1
10
189.780279
20
203.520073
11
190.257600
21
202.991643
0
LINE
8
Layer 1
10
190.257600
20
202.991643
11
190.880588
21
202.617073
0
LINE
8
Layer 1
10
190.880588
20
202.617073
11
191.585967
21
202.441415
0
LINE
8
Layer 1
10
191.585967
20
202.441415
11
192.297142
21
202.477555
0
LINE
8
Layer 1
10
192.297142
20
202.477555
11
192.968011
21
202.716321
0
LINE
8
Layer 1
10
192.968011
20
202.716321
11
193.552476
21
203.148544
0
LINE
8
Layer 1
10
193.552476
20
203.148544
11
193.984699
21
203.733009
0
LINE
8
Layer 1
10
193.984699
20
203.733009
11
194.223465
21
204.403878
0
LINE
8
Layer 1
10
194.223465
20
204.403878
11
194.259605
21
205.115053
0
LINE
8
Layer 1
10
194.259605
20
205.115053
11
194.083947
21
205.820432
0
LINE
8
Layer 1
10
194.083947
20
205.820432
11
193.709377
21
206.443420
0
LINE
8
Layer 1
10
193.709377
20
206.443420
11
193.180947
21
206.920741
0
LINE
8
Layer 1
10
193.180947
20
206.920741
11
192.537737
21
207.226284
0
LINE
8
Layer 1
10
192.537737
20
207.226284
11
191.818830
21
207.333935
0
LINE
8
Layer 1
10
191.818830
20
207.333935
11
190.880588
21
207.147307
0
LINE
8
Layer 1
10
190.880588
20
207.147307
11
190.085184
21
206.615836
0
LINE
8
Layer 1
10
190.085184
20
206.615836
11
189.553713
21
205.820432
0
LINE
8
Layer 1
10
189.553713
20
205.820432
11
189.367085
21
204.882190
0
LINE
8
Layer 1
10
189.367085
20
204.882190
11
189.367085
21
204.882190
0
LINE
8
Layer 1
10
189.367085
20
177.100940
11
189.474736
21
176.382033
0
LINE
8
Layer 1
10
189.474736
20
176.382033
11
189.780279
21
175.738823
0
LINE
8
Layer 1
10
189.780279
20
175.738823
11
190.257600
21
175.210393
0
LINE
8
Layer 1
10
190.257600
20
175.210393
11
190.880588
21
174.835823
0
LINE
8
Layer 1
10
190.880588
20
174.835823
11
191.585967
21
174.660165
0
LINE
8
Layer 1
10
191.585967
20
174.660165
11
192.297142
21
174.696305
0
LINE
8
Layer 1
10
192.297142
20
174.696305
11
192.968011
21
174.935071
0
LINE
8
Layer 1
10
192.968011
20
174.935071
11
193.552476
21
175.367294
0
LINE
8
Layer 1
10
193.552476
20
175.367294
11
193.984699
21
175.951759
0
LINE
8
Layer 1
10
193.984699
20
175.951759
11
194.223465
21
176.622628
0
LINE
8
Layer 1
10
194.223465
20
176.622628
11
194.259605
21
177.333803
0
LINE
8
Layer 1
10
194.259605
20
177.333803
11
194.083947
21
178.039182
0
LINE
8
Layer 1
10
194.083947
20
178.039182
11
193.709377
21
178.662170
0
LINE
8
Layer 1
10
193.709377
20
178.662170
11
193.180947
21
179.139491
0
LINE
8
Layer 1
10
193.180947
20
179.139491
11
192.537737
21
179.445034
0
LINE
8
Layer 1
10
192.537737
20
179.445034
11
191.818830
21
179.552685
0
LINE
8
Layer 1
10
191.818830
20
179.552685
11
190.880588
21
179.366057
0
LINE
8
Layer 1
10
190.880588
20
179.366057
11
190.085184
21
178.834586
0
LINE
8
Layer 1
10
190.085184
20
178.834586
11
189.553713
21
178.039182
0
LINE
8
Layer 1
10
189.553713
20
178.039182
11
189.367085
21
177.100940
0
LINE
8
Layer 1
10
189.367085
20
177.100940
11
189.367085
21
177.100940
0
LINE
8
Layer 1
10
189.102515
20
149.055100
11
189.210166
21
148.336193
0
LINE
8
Layer 1
10
189.210166
20
148.336193
11
189.515709
21
147.692983
0
LINE
8
Layer 1
10
189.515709
20
147.692983
11
189.993030
21
147.164553
0
LINE
8
Layer 1
10
189.993030
20
147.164553
11
190.616018
21
146.789983
0
LINE
8
Layer 1
10
190.616018
20
146.789983
11
191.321397
21
146.614325
0
LINE
8
Layer 1
10
191.321397
20
146.614325
11
192.032572
21
146.650465
0
LINE
8
Layer 1
10
192.032572
20
146.650465
11
192.703441
21
146.889231
0
LINE
8
Layer 1
10
192.703441
20
146.889231
11
193.287906
21
147.321454
0
LINE
8
Layer 1
10
193.287906
20
147.321454
11
193.720129
21
147.905919
0
LINE
8
Layer 1
10
193.720129
20
147.905919
11
193.958895
21
148.576788
0
LINE
8
Layer 1
10
193.958895
20
148.576788
11
193.995035
21
149.287963
0
LINE
8
Layer 1
10
193.995035
20
149.287963
11
193.819377
21
149.993342
0
LINE
8
Layer 1
10
193.819377
20
149.993342
11
193.444807
21
150.616330
0
LINE
8
Layer 1
10
193.444807
20
150.616330
11
192.916377
21
151.093651
0
LINE
8
Layer 1
10
192.916377
20
151.093651
11
192.273167
21
151.399194
0
LINE
8
Layer 1
10
192.273167
20
151.399194
11
191.554260
21
151.506845
0
LINE
8
Layer 1
10
191.554260
20
151.506845
11
190.616018
21
151.320217
0
LINE
8
Layer 1
10
190.616018
20
151.320217
11
189.820614
21
150.788746
0
LINE
8
Layer 1
10
189.820614
20
150.788746
11
189.289143
21
149.993342
0
LINE
8
Layer 1
10
189.289143
20
149.993342
11
189.102515
21
149.055100
0
LINE
8
Layer 1
10
189.102515
20
149.055100
11
189.102515
21
149.055100
0
LINE
8
Layer 1
10
189.367085
20
121.009270
11
189.474736
21
120.290363
0
LINE
8
Layer 1
10
189.474736
20
120.290363
11
189.780279
21
119.647153
0
LINE
8
Layer 1
10
189.780279
20
119.647153
11
190.257600
21
119.118723
0
LINE
8
Layer 1
10
190.257600
20
119.118723
11
190.880588
21
118.744153
0
LINE
8
Layer 1
10
190.880588
20
118.744153
11
191.585967
21
118.568495
0
LINE
8
Layer 1
10
191.585967
20
118.568495
11
192.297142
21
118.604635
0
LINE
8
Layer 1
10
192.297142
20
118.604635
11
192.968011
21
118.843401
0
LINE
8
Layer 1
10
192.968011
20
118.843401
11
193.552476
21
119.275624
0
LINE
8
Layer 1
10
193.552476
20
119.275624
11
193.984699
21
119.860089
0
LINE
8
Layer 1
10
193.984699
20
119.860089
11
194.223465
21
120.530958
0
LINE
8
Layer 1
10
194.223465
20
120.530958
11
194.259605
21
121.242133
0
LINE
8
Layer 1
10
194.259605
20
121.242133
11
194.083947
21
121.947512
0
LINE
8
Layer 1
10
194.083947
20
121.947512
11
193.709377
21
122.570500
0
LINE
8
Layer 1
10
193.709377
20
122.570500
11
193.180947
21
123.047821
0
LINE
8
Layer 1
10
193.180947
20
123.047821
11
192.537737
21
123.353364
0
LINE
8
Layer 1
10
192.537737
20
123.353364
11
191.818830
21
123.461015
0
LINE
8
Layer 1
10
191.818830
20
123.461015
11
190.880588
21
123.274387
0
LINE
8
Layer 1
10
190.880588
20
123.274387
11
190.085184
21
122.742916
0
LINE
8
Layer 1
10
190.085184
20
122.742916
11
189.553713
21
121.947512
0
LINE
8
Layer 1
10
189.553713
20
121.947512
11
189.367085
21
121.009270
0
LINE
8
Layer 1
10
189.367085
20
121.009270
11
189.367085
21
121.009270
0
LINE
8
Layer 1
10
189.367085
20
92.963430
11
189.474736
21
92.244523
0
LINE
8
Layer 1
10
189.474736
20
92.244523
11
189.780279
21
91.601313
0
LINE
8
Layer 1
10
189.780279
20
91.601313
11
190.257600
21
91.072883
0
LINE
8
Layer 1
10
190.257600
20
91.072883
11
190.880588
21
90.698313
0
LINE
8
Layer 1
10
190.880588
20
90.698313
11
191.585967
21
90.522655
0
LINE
8
Layer 1
10
191.585967
20
90.522655
11
192.297142
21
90.558795
0
LINE
8
Layer 1
10
192.297142
20
90.558795
11
192.968011
21
90.797561
0
LINE
8
Layer 1
10
192.968011
20
90.797561
11
193.552476
21
91.229784
0
LINE
8
Layer 1
10
193.552476
20
91.229784
11
193.984699
21
91.814249
0
LINE
8
Layer 1
10
193.984699
20
91.814249
11
194.223465
21
92.485118
0
LINE
8
Layer 1
10
194.223465
20
92.485118
11
194.259605
21
93.196293
0
LINE
8
Layer 1
10
194.259605
20
93.196293
11
194.083947
21
93.901672
0
LINE
8
Layer 1
10
194.083947
20
93.901672
11
193.709377
21
94.524660
0
LINE
8
Layer 1
10
193.709377
20
94.524660
11
193.180947
21
95.001981
0
LINE
8
Layer 1
10
193.180947
20
95.001981
11
192.537737
21
95.307524
0
LINE
8
Layer 1
10
192.537737
20
95.307524
11
191.818830
21
95.415175
0
LINE
8
Layer 1
10
191.818830
20
95.415175
11
190.880588
21
95.228547
0
LINE
8
Layer 1
10
190.880588
20
95.228547
11
190.085184
21
94.697076
0
LINE
8
Layer 1
10
190.085184
20
94.697076
11
189.553713
21
93.901672
0
LINE
8
Layer 1
10
189.553713
20
93.901672
11
189.367085
21
92.963430
0
LINE
8
Layer 1
10
189.367085
20
92.963430
11
189.367085
21
92.963430
0
LINE
8
Layer 1
10
53.896431
20
58.522491
11
53.896431
21
317.297859
0
LINE
8
Layer 1
10
53.896431
20
317.297859
11
54.176562
21
318.061231
0
LINE
8
Layer 1
10
54.176562
20
318.061231
11
54.486850
21
318.295253
0
LINE
8
Layer 1
10
54.486850
20
318.295253
11
54.852859
21
318.377430
0
LINE
8
Layer 1
10
54.852859
20
318.377430
11
228.791933
21
318.377430
0
LINE
8
Layer 1
10
228.791933
20
318.377430
11
229.157942
21
318.295253
0
LINE
8
Layer 1
10
229.157942
20
318.295253
11
229.468230
21
318.061231
0
LINE
8
Layer 1
10
229.468230
20
318.061231
11
229.748361
21
317.297859
0
LINE
8
Layer 1
10
229.748361
20
317.297859
11
229.748361
21
58.522491
0
LINE
8
Layer 1
10
229.748361
20
58.522491
11
229.468230
21
57.759119
0
LINE
8
Layer 1
10
229.468230
20
57.759119
11
229.157942
21
57.525097
0
LINE
8
Layer 1
10
229.157942
20
57.525097
11
228.791933
21
57.442920
0
LINE
8
Layer 1
10
228.791933
20
57.442920
11
54.852859
21
57.442920
0
LINE
8
Layer 1
10
54.852859
20
57.442920
11
54.486850
21
57.525097
0
LINE
8
Layer 1
10
54.486850
20
57.525097
11
54.176562
21
57.759119
0
LINE
8
Layer 1
10
54.176562
20
57.759119
11
53.896431
21
58.522491
0
LINE
8
Layer 1
10
53.896431
20
58.522491
11
53.896431
21
58.522491
0
LINE
8
Layer 1
10
17.591581
20
21.721213
11
17.591581
21
317.334297
0
LINE
8
Layer 1
10
17.591581
20
317.334297
11
17.679258
21
317.806243
0
LINE
8
Layer 1
10
17.679258
20
317.806243
11
17.928941
21
318.206339
0
LINE
8
Layer 1
10
17.928941
20
318.206339
11
18.302618
21
318.473674
0
LINE
8
Layer 1
10
18.302618
20
318.473674
11
18.743401
21
318.567550
0
LINE
8
Layer 1
10
18.743401
20
318.567550
11
228.216951
21
318.567550
0
LINE
8
Layer 1
10
228.216951
20
318.567550
11
228.657734
21
318.473674
0
LINE
8
Layer 1
10
228.657734
20
318.473674
11
229.031411
21
318.206339
0
LINE
8
Layer 1
10
229.031411
20
318.206339
11
229.281094
21
317.806243
0
LINE
8
Layer 1
10
229.281094
20
317.806243
11
229.368771
21
317.334297
0
LINE
8
Layer 1
10
229.368771
20
317.334297
11
229.368771
21
21.721213
0
LINE
8
Layer 1
10
229.368771
20
21.721213
11
229.281094
21
21.249267
0
LINE
8
Layer 1
10
229.281094
20
21.249267
11
229.031411
21
20.849171
0
LINE
8
Layer 1
10
229.031411
20
20.849171
11
228.657734
21
20.581836
0
LINE
8
Layer 1
10
228.657734
20
20.581836
11
228.216951
21
20.487960
0
LINE
8
Layer 1
10
228.216951
20
20.487960
11
18.743401
21
20.487960
0
LINE
8
Layer 1
10
18.743401
20
20.487960
11
18.302618
21
20.581836
0
LINE
8
Layer 1
10
18.302618
20
20.581836
11
17.928941
21
20.849171
0
LINE
8
Layer 1
10
17.928941
20
20.849171
11
17.679258
21
21.249267
0
LINE
8
Layer 1
10
17.679258
20
21.249267
11
17.591581
21
21.721213
0
LINE
8
Layer 1
10
17.591581
20
21.721213
11
17.591581
21
21.721213
0
LINE
8
Layer 1
10
213.857570
20
20.872679
11
213.857570
21
56.616799
0
LINE
8
Layer 1
10
213.857570
20
56.616799
11
213.882168
21
56.722242
0
LINE
8
Layer 1
10
213.882168
20
56.722242
11
213.941553
21
56.765918
0
LINE
8
Layer 1
10
213.941553
20
56.765918
11
229.214942
21
56.765918
0
LINE
8
Layer 1
10
229.214942
20
56.765918
11
229.274327
21
56.722242
0
LINE
8
Layer 1
10
229.274327
20
56.722242
11
229.298925
21
56.616799
0
LINE
8
Layer 1
10
229.298925
20
56.616799
11
229.298925
21
20.872679
0
LINE
8
Layer 1
10
229.298925
20
20.872679
11
229.274327
21
20.767236
0
LINE
8
Layer 1
10
229.274327
20
20.767236
11
229.214942
21
20.723560
0
LINE
8
Layer 1
10
229.214942
20
20.723560
11
213.941553
21
20.723560
0
LINE
8
Layer 1
10
213.941553
20
20.723560
11
213.882168
21
20.767236
0
LINE
8
Layer 1
10
213.882168
20
20.767236
11
213.857570
21
20.872679
0
LINE
8
Layer 1
10
213.857570
20
20.872679
11
213.857570
21
20.872679
0
LINE
8
Layer 1
10
18.000010
20
291.850855
11
18.000010
21
318.368801
0
LINE
8
Layer 1
10
18.000010
20
318.368801
11
18.057460
21
318.447028
0
LINE
8
Layer 1
10
18.057460
20
318.447028
11
18.196157
21
318.479430
0
LINE
8
Layer 1
10
18.196157
20
318.479430
11
53.868144
21
318.479430
0
LINE
8
Layer 1
10
53.868144
20
318.479430
11
54.006841
21
318.447028
0
LINE
8
Layer 1
10
54.006841
20
318.447028
11
54.064291
21
318.368801
0
LINE
8
Layer 1
10
54.064291
20
318.368801
11
54.064291
21
291.850855
0
LINE
8
Layer 1
10
54.064291
20
291.850855
11
54.006841
21
291.772628
0
LINE
8
Layer 1
10
54.006841
20
291.772628
11
53.868144
21
291.740226
0
LINE
8
Layer 1
10
53.868144
20
291.740226
11
18.196157
21
291.740226
0
LINE
8
Layer 1
10
18.196157
20
291.740226
11
18.057460
21
291.772628
0
LINE
8
Layer 1
10
18.057460
20
291.772628
11
18.000010
21
291.850855
0
LINE
8
Layer 1
10
18.000010
20
291.850855
11
18.000010
21
291.850855
0
LINE
8
Layer 1
10
77.259820
20
42.202010
11
77.358814
21
41.540913
0
LINE
8
Layer 1
10
77.358814
20
41.540913
11
77.639787
21
40.949426
0
LINE
8
Layer 1
10
77.639787
20
40.949426
11
78.078726
21
40.463489
0
LINE
8
Layer 1
10
78.078726
20
40.463489
11
78.651617
21
40.119039
0
LINE
8
Layer 1
10
78.651617
20
40.119039
11
79.300275
21
39.957507
0
LINE
8
Layer 1
10
79.300275
20
39.957507
11
79.954261
21
39.990740
0
LINE
8
Layer 1
10
79.954261
20
39.990740
11
80.571184
21
40.210306
0
LINE
8
Layer 1
10
80.571184
20
40.210306
11
81.108650
21
40.607773
0
LINE
8
Layer 1
10
81.108650
20
40.607773
11
81.506117
21
41.145239
0
LINE
8
Layer 1
10
81.506117
20
41.145239
11
81.725683
21
41.762161
0
LINE
8
Layer 1
10
81.725683
20
41.762161
11
81.758916
21
42.416147
0
LINE
8
Layer 1
10
81.758916
20
42.416147
11
81.597384
21
43.064805
0
LINE
8
Layer 1
10
81.597384
20
43.064805
11
81.252934
21
43.637696
0
LINE
8
Layer 1
10
81.252934
20
43.637696
11
80.766996
21
44.076634
0
LINE
8
Layer 1
10
80.766996
20
44.076634
11
80.175509
21
44.357607
0
LINE
8
Layer 1
10
80.175509
20
44.357607
11
79.514412
21
44.456601
0
LINE
8
Layer 1
10
79.514412
20
44.456601
11
78.651617
21
44.284981
0
LINE
8
Layer 1
10
78.651617
20
44.284981
11
77.920174
21
43.796247
0
LINE
8
Layer 1
10
77.920174
20
43.796247
11
77.431440
21
43.064805
0
LINE
8
Layer 1
10
77.431440
20
43.064805
11
77.259820
21
42.202010
0
LINE
8
Layer 1
10
77.259820
20
42.202010
11
77.259820
21
42.202010
0
LINE
8
Layer 1
10
105.744188
20
42.229790
11
105.921365
21
41.352201
0
LINE
8
Layer 1
10
105.921365
20
41.352201
11
106.404542
21
40.635553
0
LINE
8
Layer 1
10
106.404542
20
40.635553
11
107.121191
21
40.152375
0
LINE
8
Layer 1
10
107.121191
20
40.152375
11
107.998780
21
39.975198
0
LINE
8
Layer 1
10
107.998780
20
39.975198
11
108.876369
21
40.152375
0
LINE
8
Layer 1
10
108.876369
20
40.152375
11
109.593018
21
40.635553
0
LINE
8
Layer 1
10
109.593018
20
40.635553
11
110.076195
21
41.352201
0
LINE
8
Layer 1
10
110.076195
20
41.352201
11
110.253372
21
42.229790
0
LINE
8
Layer 1
10
110.253372
20
42.229790
11
110.076195
21
43.107379
0
LINE
8
Layer 1
10
110.076195
20
43.107379
11
109.593018
21
43.824027
0
LINE
8
Layer 1
10
109.593018
20
43.824027
11
108.876369
21
44.307205
0
LINE
8
Layer 1
10
108.876369
20
44.307205
11
107.998780
21
44.484381
0
LINE
8
Layer 1
10
107.998780
20
44.484381
11
107.135985
21
44.312761
0
LINE
8
Layer 1
10
107.135985
20
44.312761
11
106.404542
21
43.824027
0
LINE
8
Layer 1
10
106.404542
20
43.824027
11
105.915808
21
43.092585
0
LINE
8
Layer 1
10
105.915808
20
43.092585
11
105.744188
21
42.229790
0
LINE
8
Layer 1
10
105.744188
20
42.229790
11
105.744188
21
42.229790
0
LINE
8
Layer 1
10
134.491088
20
42.211320
11
134.590082
21
41.550223
0
LINE
8
Layer 1
10
134.590082
20
41.550223
11
134.871055
21
40.958736
0
LINE
8
Layer 1
10
134.871055
20
40.958736
11
135.309994
21
40.472799
0
LINE
8
Layer 1
10
135.309994
20
40.472799
11
135.882885
21
40.128349
0
LINE
8
Layer 1
10
135.882885
20
40.128349
11
136.531543
21
39.966817
0
LINE
8
Layer 1
10
136.531543
20
39.966817
11
137.185529
21
40.000050
0
LINE
8
Layer 1
10
137.185529
20
40.000050
11
137.802452
21
40.219616
0
LINE
8
Layer 1
10
137.802452
20
40.219616
11
138.339918
21
40.617083
0
LINE
8
Layer 1
10
138.339918
20
40.617083
11
138.737385
21
41.154549
0
LINE
8
Layer 1
10
138.737385
20
41.154549
11
138.956951
21
41.771471
0
LINE
8
Layer 1
10
138.956951
20
41.771471
11
138.990184
21
42.425457
0
LINE
8
Layer 1
10
138.990184
20
42.425457
11
138.828652
21
43.074115
0
LINE
8
Layer 1
10
138.828652
20
43.074115
11
138.484202
21
43.647006
0
LINE
8
Layer 1
10
138.484202
20
43.647006
11
137.998264
21
44.085944
0
LINE
8
Layer 1
10
137.998264
20
44.085944
11
137.406777
21
44.366917
0
LINE
8
Layer 1
10
137.406777
20
44.366917
11
136.745680
21
44.465911
0
LINE
8
Layer 1
10
136.745680
20
44.465911
11
135.882885
21
44.294291
0
LINE
8
Layer 1
10
135.882885
20
44.294291
11
135.151442
21
43.805557
0
LINE
8
Layer 1
10
135.151442
20
43.805557
11
134.662708
21
43.074115
0
LINE
8
Layer 1
10
134.662708
20
43.074115
11
134.491088
21
42.211320
0
LINE
8
Layer 1
10
134.491088
20
42.211320
11
134.491088
21
42.211320
0
LINE
8
Layer 1
10
160.633878
20
42.318440
11
160.732872
21
41.657343
0
LINE
8
Layer 1
10
160.732872
20
41.657343
11
161.013845
21
41.065856
0
LINE
8
Layer 1
10
161.013845
20
41.065856
11
161.452784
21
40.579919
0
LINE
8
Layer 1
10
161.452784
20
40.579919
11
162.025675
21
40.235469
0
LINE
8
Layer 1
10
162.025675
20
40.235469
11
162.674333
21
40.073937
0
LINE
8
Layer 1
10
162.674333
20
40.073937
11
163.328319
21
40.107170
0
LINE
8
Layer 1
10
163.328319
20
40.107170
11
163.945242
21
40.326736
0
LINE
8
Layer 1
10
163.945242
20
40.326736
11
164.482708
21
40.724203
0
LINE
8
Layer 1
10
164.482708
20
40.724203
11
164.880175
21
41.261669
0
LINE
8
Layer 1
10
164.880175
20
41.261669
11
165.099741
21
41.878591
0
LINE
8
Layer 1
10
165.099741
20
41.878591
11
165.132974
21
42.532577
0
LINE
8
Layer 1
10
165.132974
20
42.532577
11
164.971442
21
43.181235
0
LINE
8
Layer 1
10
164.971442
20
43.181235
11
164.626992
21
43.754126
0
LINE
8
Layer 1
10
164.626992
20
43.754126
11
164.141054
21
44.193064
0
LINE
8
Layer 1
10
164.141054
20
44.193064
11
163.549567
21
44.474037
0
LINE
8
Layer 1
10
163.549567
20
44.474037
11
162.888470
21
44.573031
0
LINE
8
Layer 1
10
162.888470
20
44.573031
11
162.025675
21
44.401411
0
LINE
8
Layer 1
10
162.025675
20
44.401411
11
161.294232
21
43.912677
0
LINE
8
Layer 1
10
161.294232
20
43.912677
11
160.805498
21
43.181235
0
LINE
8
Layer 1
10
160.805498
20
43.181235
11
160.633878
21
42.318440
0
LINE
8
Layer 1
10
160.633878
20
42.318440
11
160.633878
21
42.318440
0
LINE
8
Layer 1
10
189.473468
20
42.318440
11
189.572462
21
41.657343
0
LINE
8
Layer 1
10
189.572462
20
41.657343
11
189.853435
21
41.065856
0
LINE
8
Layer 1
10
189.853435
20
41.065856
11
190.292374
21
40.579919
0
LINE
8
Layer 1
10
190.292374
20
40.579919
11
190.865265
21
40.235469
0
LINE
8
Layer 1
10
190.865265
20
40.235469
11
191.513923
21
40.073937
0
LINE
8
Layer 1
10
191.513923
20
40.073937
11
192.167909
21
40.107170
0
LINE
8
Layer 1
10
192.167909
20
40.107170
11
192.784832
21
40.326736
0
LINE
8
Layer 1
10
192.784832
20
40.326736
11
193.322298
21
40.724203
0
LINE
8
Layer 1
10
193.322298
20
40.724203
11
193.719765
21
41.261669
0
LINE
8
Layer 1
10
193.719765
20
41.261669
11
193.939331
21
41.878591
0
LINE
8
Layer 1
10
193.939331
20
41.878591
11
193.972564
21
42.532577
0
LINE
8
Layer 1
10
193.972564
20
42.532577
11
193.811032
21
43.181235
0
LINE
8
Layer 1
10
193.811032
20
43.181235
11
193.466582
21
43.754126
0
LINE
8
Layer 1
10
193.466582
20
43.754126
11
192.980644
21
44.193064
0
LINE
8
Layer 1
10
192.980644
20
44.193064
11
192.389157
21
44.474037
0
LINE
8
Layer 1
10
192.389157
20
44.474037
11
191.728060
21
44.573031
0
LINE
8
Layer 1
10
191.728060
20
44.573031
11
190.865265
21
44.401411
0
LINE
8
Layer 1
10
190.865265
20
44.401411
11
190.133822
21
43.912677
0
LINE
8
Layer 1
10
190.133822
20
43.912677
11
189.645088
21
43.181235
0
LINE
8
Layer 1
10
189.645088
20
43.181235
11
189.473468
21
42.318440
0
LINE
8
Layer 1
10
189.473468
20
42.318440
11
189.473468
21
42.318440
0
LINE
8
Layer 1
10
35.825772
20
91.685930
11
35.924766
21
91.024833
0
LINE
8
Layer 1
10
35.924766
20
91.024833
11
36.205739
21
90.433346
0
LINE
8
Layer 1
10
36.205739
20
90.433346
11
36.644678
21
89.947409
0
LINE
8
Layer 1
10
36.644678
20
89.947409
11
37.217569
21
89.602959
0
LINE
8
Layer 1
10
37.217569
20
89.602959
11
37.866227
21
89.441427
0
LINE
8
Layer 1
10
37.866227
20
89.441427
11
38.520213
21
89.474660
0
LINE
8
Layer 1
10
38.520213
20
89.474660
11
39.137136
21
89.694226
0
LINE
8
Layer 1
10
39.137136
20
89.694226
11
39.674602
21
90.091693
0
LINE
8
Layer 1
10
39.674602
20
90.091693
11
40.072069
21
90.629159
0
LINE
8
Layer 1
10
40.072069
20
90.629159
11
40.291635
21
91.246081
0
LINE
8
Layer 1
10
40.291635
20
91.246081
11
40.324868
21
91.900067
0
LINE
8
Layer 1
10
40.324868
20
91.900067
11
40.163336
21
92.548725
0
LINE
8
Layer 1
10
40.163336
20
92.548725
11
39.818886
21
93.121616
0
LINE
8
Layer 1
10
39.818886
20
93.121616
11
39.332948
21
93.560554
0
LINE
8
Layer 1
10
39.332948
20
93.560554
11
38.741461
21
93.841527
0
LINE
8
Layer 1
10
38.741461
20
93.841527
11
38.080364
21
93.940522
0
LINE
8
Layer 1
10
38.080364
20
93.940522
11
37.217569
21
93.768901
0
LINE
8
Layer 1
10
37.217569
20
93.768901
11
36.486126
21
93.280167
0
LINE
8
Layer 1
10
36.486126
20
93.280167
11
35.997392
21
92.548725
0
LINE
8
Layer 1
10
35.997392
20
92.548725
11
35.825772
21
91.685930
0
LINE
8
Layer 1
10
35.825772
20
91.685930
11
35.825772
21
91.685930
0
LINE
8
Layer 1
10
35.825772
20
120.525530
11
35.924766
21
119.864433
0
LINE
8
Layer 1
10
35.924766
20
119.864433
11
36.205739
21
119.272946
0
LINE
8
Layer 1
10
36.205739
20
119.272946
11
36.644678
21
118.787009
0
LINE
8
Layer 1
10
36.644678
20
118.787009
11
37.217569
21
118.442559
0
LINE
8
Layer 1
10
37.217569
20
118.442559
11
37.866227
21
118.281027
0
LINE
8
Layer 1
10
37.866227
20
118.281027
11
38.520213
21
118.314260
0
LINE
8
Layer 1
10
38.520213
20
118.314260
11
39.137136
21
118.533826
0
LINE
8
Layer 1
10
39.137136
20
118.533826
11
39.674602
21
118.931293
0
LINE
8
Layer 1
10
39.674602
20
118.931293
11
40.072069
21
119.468759
0
LINE
8
Layer 1
10
40.072069
20
119.468759
11
40.291635
21
120.085681
0
LINE
8
Layer 1
10
40.291635
20
120.085681
11
40.324868
21
120.739667
0
LINE
8
Layer 1
10
40.324868
20
120.739667
11
40.163336
21
121.388325
0
LINE
8
Layer 1
10
40.163336
20
121.388325
11
39.818886
21
121.961216
0
LINE
8
Layer 1
10
39.818886
20
121.961216
11
39.332948
21
122.400154
0
LINE
8
Layer 1
10
39.332948
20
122.400154
11
38.741461
21
122.681127
0
LINE
8
Layer 1
10
38.741461
20
122.681127
11
38.080364
21
122.780121
0
LINE
8
Layer 1
10
38.080364
20
122.780121
11
37.217569
21
122.608501
0
LINE
8
Layer 1
10
37.217569
20
122.608501
11
36.486126
21
122.119767
0
LINE
8
Layer 1
10
36.486126
20
122.119767
11
35.997392
21
121.388325
0
LINE
8
Layer 1
10
35.997392
20
121.388325
11
35.825772
21
120.525530
0
LINE
8
Layer 1
10
35.825772
20
120.525530
11
35.825772
21
120.525530
0
LINE
8
Layer 1
10
35.825772
20
148.835930
11
35.924766
21
148.174833
0
LINE
8
Layer 1
10
35.924766
20
148.174833
11
36.205739
21
147.583346
0
LINE
8
Layer 1
10
36.205739
20
147.583346
11
36.644678
21
147.097409
0
LINE
8
Layer 1
10
36.644678
20
147.097409
11
37.217569
21
146.752959
0
LINE
8
Layer 1
10
37.217569
20
146.752959
11
37.866227
21
146.591427
0
LINE
8
Layer 1
10
37.866227
20
146.591427
11
38.520213
21
146.624660
0
LINE
8
Layer 1
10
38.520213
20
146.624660
11
39.137136
21
146.844226
0
LINE
8
Layer 1
10
39.137136
20
146.844226
11
39.674602
21
147.241693
0
LINE
8
Layer 1
10
39.674602
20
147.241693
11
40.072069
21
147.779159
0
LINE
8
Layer 1
10
40.072069
20
147.779159
11
40.291635
21
148.396081
0
LINE
8
Layer 1
10
40.291635
20
148.396081
11
40.324868
21
149.050067
0
LINE
8
Layer 1
10
40.324868
20
149.050067
11
40.163336
21
149.698725
0
LINE
8
Layer 1
10
40.163336
20
149.698725
11
39.818886
21
150.271616
0
LINE
8
Layer 1
10
39.818886
20
150.271616
11
39.332948
21
150.710554
0
LINE
8
Layer 1
10
39.332948
20
150.710554
11
38.741461
21
150.991527
0
LINE
8
Layer 1
10
38.741461
20
150.991527
11
38.080364
21
151.090521
0
LINE
8
Layer 1
10
38.080364
20
151.090521
11
37.217569
21
150.918901
0
LINE
8
Layer 1
10
37.217569
20
150.918901
11
36.486126
21
150.430167
0
LINE
8
Layer 1
10
36.486126
20
150.430167
11
35.997392
21
149.698725
0
LINE
8
Layer 1
10
35.997392
20
149.698725
11
35.825772
21
148.835930
0
LINE
8
Layer 1
10
35.825772
20
148.835930
11
35.825772
21
148.835930
0
LINE
8
Layer 1
10
35.561192
20
175.294270
11
35.660186
21
174.633173
0
LINE
8
Layer 1
10
35.660186
20
174.633173
11
35.941159
21
174.041686
0
LINE
8
Layer 1
10
35.941159
20
174.041686
11
36.380098
21
173.555749
0
LINE
8
Layer 1
10
36.380098
20
173.555749
11
36.952989
21
173.211299
0
LINE
8
Layer 1
10
36.952989
20
173.211299
11
37.601647
21
173.049767
0
LINE
8
Layer 1
10
37.601647
20
173.049767
11
38.255633
21
173.083000
0
LINE
8
Layer 1
10
38.255633
20
173.083000
11
38.872556
21
173.302566
0
LINE
8
Layer 1
10
38.872556
20
173.302566
11
39.410022
21
173.700033
0
LINE
8
Layer 1
10
39.410022
20
173.700033
11
39.807489
21
174.237499
0
LINE
8
Layer 1
10
39.807489
20
174.237499
11
40.027055
21
174.854421
0
LINE
8
Layer 1
10
40.027055
20
174.854421
11
40.060288
21
175.508407
0
LINE
8
Layer 1
10
40.060288
20
175.508407
11
39.898756
21
176.157065
0
LINE
8
Layer 1
10
39.898756
20
176.157065
11
39.554306
21
176.729956
0
LINE
8
Layer 1
10
39.554306
20
176.729956
11
39.068368
21
177.168894
0
LINE
8
Layer 1
10
39.068368
20
177.168894
11
38.476881
21
177.449867
0
LINE
8
Layer 1
10
38.476881
20
177.449867
11
37.815784
21
177.548861
0
LINE
8
Layer 1
10
37.815784
20
177.548861
11
36.952989
21
177.377241
0
LINE
8
Layer 1
10
36.952989
20
177.377241
11
36.221546
21
176.888507
0
LINE
8
Layer 1
10
36.221546
20
176.888507
11
35.732812
21
176.157065
0
LINE
8
Layer 1
10
35.732812
20
176.157065
11
35.561192
21
175.294270
0
LINE
8
Layer 1
10
35.561192
20
175.294270
11
35.561192
21
175.294270
0
LINE
8
Layer 1
10
35.937871
20
203.716820
11
36.036865
21
203.055723
0
LINE
8
Layer 1
10
36.036865
20
203.055723
11
36.317838
21
202.464236
0
LINE
8
Layer 1
10
36.317838
20
202.464236
11
36.756777
21
201.978299
0
LINE
8
Layer 1
10
36.756777
20
201.978299
11
37.329668
21
201.633849
0
LINE
8
Layer 1
10
37.329668
20
201.633849
11
37.978326
21
201.472317
0
LINE
8
Layer 1
10
37.978326
20
201.472317
11
38.632312
21
201.505550
0
LINE
8
Layer 1
10
38.632312
20
201.505550
11
39.249235
21
201.725116
0
LINE
8
Layer 1
10
39.249235
20
201.725116
11
39.786701
21
202.122583
0
LINE
8
Layer 1
10
39.786701
20
202.122583
11
40.184168
21
202.660049
0
LINE
8
Layer 1
10
40.184168
20
202.660049
11
40.403734
21
203.276971
0
LINE
8
Layer 1
10
40.403734
20
203.276971
11
40.436967
21
203.930957
0
LINE
8
Layer 1
10
40.436967
20
203.930957
11
40.275435
21
204.579615
0
LINE
8
Layer 1
10
40.275435
20
204.579615
11
39.930985
21
205.152506
0
LINE
8
Layer 1
10
39.930985
20
205.152506
11
39.445047
21
205.591444
0
LINE
8
Layer 1
10
39.445047
20
205.591444
11
38.853560
21
205.872417
0
LINE
8
Layer 1
10
38.853560
20
205.872417
11
38.192463
21
205.971411
0
LINE
8
Layer 1
10
38.192463
20
205.971411
11
37.329668
21
205.799791
0
LINE
8
Layer 1
10
37.329668
20
205.799791
11
36.598225
21
205.311057
0
LINE
8
Layer 1
10
36.598225
20
205.311057
11
36.109491
21
204.579615
0
LINE
8
Layer 1
10
36.109491
20
204.579615
11
35.937871
21
203.716820
0
LINE
8
Layer 1
10
35.937871
20
203.716820
11
35.937871
21
203.716820
0
LINE
8
Layer 1
10
35.713674
20
232.291810
11
35.812668
21
231.630713
0
LINE
8
Layer 1
10
35.812668
20
231.630713
11
36.093641
21
231.039226
0
LINE
8
Layer 1
10
36.093641
20
231.039226
11
36.532580
21
230.553289
0
LINE
8
Layer 1
10
36.532580
20
230.553289
11
37.105471
21
230.208839
0
LINE
8
Layer 1
10
37.105471
20
230.208839
11
37.754129
21
230.047307
0
LINE
8
Layer 1
10
37.754129
20
230.047307
11
38.408115
21
230.080540
0
LINE
8
Layer 1
10
38.408115
20
230.080540
11
39.025038
21
230.300106
0
LINE
8
Layer 1
10
39.025038
20
230.300106
11
39.562504
21
230.697573
0
LINE
8
Layer 1
10
39.562504
20
230.697573
11
39.959971
21
231.235039
0
LINE
8
Layer 1
10
39.959971
20
231.235039
11
40.179537
21
231.851961
0
LINE
8
Layer 1
10
40.179537
20
231.851961
11
40.212770
21
232.505947
0
LINE
8
Layer 1
10
40.212770
20
232.505947
11
40.051238
21
233.154605
0
LINE
8
Layer 1
10
40.051238
20
233.154605
11
39.706788
21
233.727496
0
LINE
8
Layer 1
10
39.706788
20
233.727496
11
39.220850
21
234.166434
0
LINE
8
Layer 1
10
39.220850
20
234.166434
11
38.629363
21
234.447407
0
LINE
8
Layer 1
10
38.629363
20
234.447407
11
37.968266
21
234.546401
0
LINE
8
Layer 1
10
37.968266
20
234.546401
11
37.105471
21
234.374781
0
LINE
8
Layer 1
10
37.105471
20
234.374781
11
36.374028
21
233.886047
0
LINE
8
Layer 1
10
36.374028
20
233.886047
11
35.885294
21
233.154605
0
LINE
8
Layer 1
10
35.885294
20
233.154605
11
35.713674
21
232.291810
0
LINE
8
Layer 1
10
35.713674
20
232.291810
11
35.713674
21
232.291810
0
LINE
8
Layer 1
10
35.825772
20
261.019290
11
35.924766
21
260.358193
0
LINE
8
Layer 1
10
35.924766
20
260.358193
11
36.205739
21
259.766706
0
LINE
8
Layer 1
10
36.205739
20
259.766706
11
36.644678
21
259.280769
0
LINE
8
Layer 1
10
36.644678
20
259.280769
11
37.217569
21
258.936319
0
LINE
8
Layer 1
10
37.217569
20
258.936319
11
37.866227
21
258.774787
0
LINE
8
Layer 1
10
37.866227
20
258.774787
11
38.520213
21
258.808020
0
LINE
8
Layer 1
10
38.520213
20
258.808020
11
39.137136
21
259.027586
0
LINE
8
Layer 1
10
39.137136
20
259.027586
11
39.674602
21
259.425053
0
LINE
8
Layer 1
10
39.674602
20
259.425053
11
40.072069
21
259.962519
0
LINE
8
Layer 1
10
40.072069
20
259.962519
11
40.291635
21
260.579441
0
LINE
8
Layer 1
10
40.291635
20
260.579441
11
40.324868
21
261.233427
0
LINE
8
Layer 1
10
40.324868
20
261.233427
11
40.163336
21
261.882085
0
LINE
8
Layer 1
10
40.163336
20
261.882085
11
39.818886
21
262.454976
0
LINE
8
Layer 1
10
39.818886
20
262.454976
11
39.332948
21
262.893914
0
LINE
8
Layer 1
10
39.332948
20
262.893914
11
38.741461
21
263.174887
0
LINE
8
Layer 1
10
38.741461
20
263.174887
11
38.080364
21
263.273881
0
LINE
8
Layer 1
10
38.080364
20
263.273881
11
37.217569
21
263.102261
0
LINE
8
Layer 1
10
37.217569
20
263.102261
11
36.486126
21
262.613527
0
LINE
8
Layer 1
10
36.486126
20
262.613527
11
35.997392
21
261.882085
0
LINE
8
Layer 1
10
35.997392
20
261.882085
11
35.825772
21
261.019290
0
LINE
8
Layer 1
10
35.825772
20
261.019290
11
35.825772
21
261.019290
0
LINE
8
Layer 1
10
10.158943
20
310.007564
11
10.235143
21
331.735645
0
LINE
8
Layer 1
10
10.235143
20
331.735645
11
29.523583
21
331.735645
0
LINE
8
Layer 1
10
29.523583
20
331.735645
11
29.447383
21
335.852543
0
LINE
8
Layer 1
10
29.447383
20
335.852543
11
50.184363
21
335.852543
0
LINE
8
Layer 1
10
50.184363
20
335.852543
11
50.108163
21
331.888122
0
LINE
8
Layer 1
10
50.108163
20
331.888122
11
70.997609
21
331.811882
0
LINE
8
Layer 1
10
70.997609
20
331.811882
11
70.845129
21
335.852541
0
LINE
8
Layer 1
10
70.845129
20
335.852541
11
91.647779
21
335.886551
0
LINE
8
Layer 1
10
91.647779
20
335.886551
11
91.654779
21
331.782729
0
LINE
8
Layer 1
10
91.654779
20
331.782729
11
112.366990
21
331.773729
0
LINE
8
Layer 1
10
112.366990
20
331.773729
11
112.371990
21
335.890630
0
LINE
8
Layer 1
10
112.371990
20
335.890630
11
133.123260
21
335.881130
0
LINE
8
Layer 1
10
133.123260
20
335.881130
11
133.094660
21
331.764229
0
LINE
8
Layer 1
10
133.094660
20
331.764229
11
153.822110
21
331.773729
0
LINE
8
Layer 1
10
153.822110
20
331.773729
11
153.832110
21
335.909688
0
LINE
8
Layer 1
10
153.832110
20
335.909688
11
174.530970
21
335.909688
0
LINE
8
Layer 1
10
174.530970
20
335.909688
11
174.530970
21
331.735611
0
LINE
8
Layer 1
10
174.530970
20
331.735611
11
195.268630
21
331.769221
0
LINE
8
Layer 1
10
195.268630
20
331.769221
11
195.275630
21
335.893260
0
LINE
8
Layer 1
10
195.275630
20
335.893260
11
216.003650
21
335.893260
0
LINE
8
Layer 1
10
216.003650
20
335.893260
11
216.000650
21
331.775960
0
LINE
8
Layer 1
10
216.000650
20
331.775960
11
243.195740
21
331.771160
0
LINE
8
Layer 1
10
243.195740
20
331.771160
11
243.190740
21
310.167945
0
LINE
8
Layer 1
10
243.190740
20
310.167945
11
235.239460
21
310.167945
0
LINE
8
Layer 1
10
235.239460
20
310.167945
11
235.286260
21
291.692938
0
LINE
8
Layer 1
10
235.286260
20
291.692938
11
243.237530
21
291.599398
0
LINE
8
Layer 1
10
243.237530
20
291.599398
11
243.190730
21
273.124385
0
LINE
8
Layer 1
10
243.190730
20
273.124385
11
235.145910
21
273.124385
0
LINE
8
Layer 1
10
235.145910
20
273.124385
11
235.239510
21
254.555835
0
LINE
8
Layer 1
10
235.239510
20
254.555835
11
243.190780
21
254.555835
0
LINE
8
Layer 1
10
243.190780
20
254.555835
11
243.190780
21
236.080840
0
LINE
8
Layer 1
10
243.190780
20
236.080840
11
235.192730
21
236.080840
0
LINE
8
Layer 1
10
235.192730
20
236.080840
11
235.239530
21
217.605820
0
LINE
8
Layer 1
10
235.239530
20
217.605820
11
243.190800
21
217.559020
0
LINE
8
Layer 1
10
243.190800
20
217.559020
11
243.190800
21
198.943700
0
LINE
8
Layer 1
10
243.190800
20
198.943700
11
235.239530
21
198.943700
0
LINE
8
Layer 1
10
235.239530
20
198.943700
11
235.286330
21
180.421920
0
LINE
8
Layer 1
10
235.286330
20
180.421920
11
243.144050
21
180.468720
0
LINE
8
Layer 1
10
243.144050
20
180.468720
11
243.144050
21
161.993710
0
LINE
8
Layer 1
10
243.144050
20
161.993710
11
235.146010
21
161.900210
0
LINE
8
Layer 1
10
235.146010
20
161.900210
11
235.192810
21
143.425200
0
LINE
8
Layer 1
10
235.192810
20
143.425200
11
243.190860
21
143.425200
0
LINE
8
Layer 1
10
243.190860
20
143.425200
11
243.190860
21
124.950190
0
LINE
8
Layer 1
10
243.190860
20
124.950190
11
235.146040
21
124.856690
0
LINE
8
Layer 1
10
235.146040
20
124.856690
11
235.239640
21
106.334910
0
LINE
8
Layer 1
10
235.239640
20
106.334910
11
243.190910
21
106.428410
0
LINE
8
Layer 1
10
243.190910
20
106.428410
11
243.144110
21
87.766310
0
LINE
8
Layer 1
10
243.144110
20
87.766310
11
235.052530
21
87.859810
0
LINE
8
Layer 1
10
235.052530
20
87.859810
11
235.192840
21
69.338030
0
LINE
8
Layer 1
10
235.192840
20
69.338030
11
243.097340
21
69.384830
0
LINE
8
Layer 1
10
243.097340
20
69.384830
11
243.144140
21
50.769510
0
LINE
8
Layer 1
10
243.144140
20
50.769510
11
235.192870
21
50.769510
0
LINE
8
Layer 1
10
235.192870
20
50.769510
11
235.286370
21
32.154190
0
LINE
8
Layer 1
10
235.286370
20
32.154190
11
243.050550
21
32.200890
0
LINE
8
Layer 1
10
243.050550
20
32.200890
11
243.237640
21
10.638940
0
LINE
8
Layer 1
10
243.237640
20
10.638940
11
215.992850
21
10.662240
0
LINE
8
Layer 1
10
215.992850
20
10.662240
11
215.992850
21
6.546280
0
LINE
8
Layer 1
10
215.992850
20
6.546280
11
195.272780
21
6.522980
0
LINE
8
Layer 1
10
195.272780
20
6.522980
11
195.249380
21
10.638950
0
LINE
8
Layer 1
10
195.249380
20
10.638950
11
174.548310
21
10.644950
0
LINE
8
Layer 1
10
174.548310
20
10.644950
11
174.548310
21
6.527530
0
LINE
8
Layer 1
10
174.548310
20
6.527530
11
153.820010
21
6.527530
0
LINE
8
Layer 1
10
153.820010
20
6.527530
11
153.822010
21
10.645110
0
LINE
8
Layer 1
10
153.822010
20
10.645110
11
133.053380
21
10.617610
0
LINE
8
Layer 1
10
133.053380
20
10.617610
11
133.086480
21
6.533110
0
LINE
8
Layer 1
10
133.086480
20
6.533110
11
112.321390
21
6.523010
0
LINE
8
Layer 1
10
112.321390
20
6.523010
11
112.321390
21
10.685730
0
LINE
8
Layer 1
10
112.321390
20
10.685730
11
91.601319
21
10.638930
0
LINE
8
Layer 1
10
91.601319
20
10.638930
11
91.648119
21
6.522980
0
LINE
8
Layer 1
10
91.648119
20
6.522980
11
70.880879
21
6.522980
0
LINE
8
Layer 1
10
70.880879
20
6.522980
11
70.880879
21
10.685700
0
LINE
8
Layer 1
10
70.880879
20
10.685700
11
50.184193
21
10.638900
0
LINE
8
Layer 1
10
50.184193
20
10.638900
11
50.195893
21
6.534640
0
LINE
8
Layer 1
10
50.195893
20
6.534640
11
29.466613
21
6.528640
0
LINE
8
Layer 1
10
29.466613
20
6.528640
11
29.466613
21
10.646220
0
LINE
8
Layer 1
10
29.466613
20
10.646220
11
10.247113
21
10.644220
0
LINE
8
Layer 1
10
10.247113
20
10.644220
11
10.245113
21
32.263580
0
LINE
8
Layer 1
10
10.245113
20
32.263580
11
2.269113
21
32.260580
0
LINE
8
Layer 1
10
2.269113
20
32.260580
11
2.270113
21
50.785420
0
LINE
8
Layer 1
10
2.270113
20
50.785420
11
10.246883
21
50.786420
0
LINE
8
Layer 1
10
10.246883
20
50.786420
11
10.246883
21
69.313450
0
LINE
8
Layer 1
10
10.246883
20
69.313450
11
2.269073
21
69.311450
0
LINE
8
Layer 1
10
2.269073
20
69.311450
11
2.269073
21
87.839520
0
LINE
8
Layer 1
10
2.269073
20
87.839520
11
10.246883
21
87.839520
0
LINE
8
Layer 1
10
10.246883
20
87.839520
11
10.252883
21
106.363460
0
LINE
8
Layer 1
10
10.252883
20
106.363460
11
2.268873
21
106.365460
0
LINE
8
Layer 1
10
2.268873
20
106.365460
11
2.268873
21
124.893530
0
LINE
8
Layer 1
10
2.268873
20
124.893530
11
10.247713
21
124.891530
0
LINE
8
Layer 1
10
10.247713
20
124.891530
11
10.248713
21
143.421980
0
LINE
8
Layer 1
10
10.248713
20
143.421980
11
2.270543
21
143.418980
0
LINE
8
Layer 1
10
2.270543
20
143.418980
11
2.268543
21
161.947050
0
LINE
8
Layer 1
10
2.268543
20
161.947050
11
10.245863
21
161.947090
0
LINE
8
Layer 1
10
10.245863
20
161.947090
11
10.247863
21
180.472010
0
LINE
8
Layer 1
10
10.247863
20
180.472010
11
2.267983
21
180.468010
0
LINE
8
Layer 1
10
2.267983
20
180.468010
11
2.268983
21
198.999180
0
LINE
8
Layer 1
10
2.268983
20
198.999180
11
10.252993
21
199.001180
0
LINE
8
Layer 1
10
10.252993
20
199.001180
11
10.246993
21
217.524080
0
LINE
8
Layer 1
10
10.246993
20
217.524080
11
2.267463
21
217.524180
0
LINE
8
Layer 1
10
2.267463
20
217.524180
11
2.270463
21
236.051820
0
LINE
8
Layer 1
10
2.270463
20
236.051820
11
10.248043
21
236.051820
0
LINE
8
Layer 1
10
10.248043
20
236.051820
11
10.247073
21
254.579185
0
LINE
8
Layer 1
10
10.247073
20
254.579185
11
2.268233
21
254.580185
0
LINE
8
Layer 1
10
2.268233
20
254.580185
11
2.268233
21
273.117555
0
LINE
8
Layer 1
10
2.268233
20
273.117555
11
10.240733
21
273.117555
0
LINE
8
Layer 1
10
10.240733
20
273.117555
11
10.247733
21
291.632193
0
LINE
8
Layer 1
10
10.247733
20
291.632193
11
2.269923
21
291.631193
0
LINE
8
Layer 1
10
2.269923
20
291.631193
11
2.269923
21
310.158023
0
LINE
8
Layer 1
10
2.269923
20
310.158023
11
10.158943
21
310.007564
 0 
ENDSEC
 0 
EOF